# MagicaVoxel @ Ephtracy

# group
g Bush-1

# material
mtllib Bush-1.mtl
usemtl palette

# normals
vn -1 0 0
vn 1 0 0
vn 0 0 1
vn 0 0 -1
vn 0 -1 0
vn 0 1 0

# texcoords
vt 0.908203 0.5
vt 0.912109 0.5

# verts
v -3 0 -0
v -3 0 -2
v -3 2 -0
v -3 2 -2
v -2 0 2
v -2 0 -0
v -2 2 -0
v -2 2 -1
v -2 3 2
v -2 3 -1
v -1 0 4
v -1 0 2
v -1 2 4
v -1 2 2
v -1 0 -1
v -1 0 -2
v -1 2 -1
v -1 2 -2
v 1 0 4
v 1 0 2
v 1 0 1
v 1 2 4
v 1 2 2
v 1 2 1
v 1 2 -1
v 1 3 2
v 1 3 -1
v 3 0 1
v 3 0 -1
v 3 2 1
v 3 2 -1
v -1 0 4
v -1 2 4
v 1 0 4
v 1 2 4
v -2 0 2
v -2 3 2
v -1 0 2
v -1 2 2
v 1 2 2
v 1 3 2
v 1 0 1
v 1 2 1
v 3 0 1
v 3 2 1
v -3 0 -0
v -3 2 -0
v -2 0 -0
v -2 2 -0
v -2 2 -1
v -2 3 -1
v -1 0 -1
v -1 2 -1
v 1 0 -1
v 1 2 -1
v 1 3 -1
v 3 0 -1
v 3 2 -1
v -3 0 -2
v -3 2 -2
v -1 0 -2
v -1 2 -2
v -1 0 4
v 1 0 4
v -2 0 2
v -1 0 2
v 1 0 2
v 1 0 1
v 3 0 1
v -3 0 -0
v -2 0 -0
v -1 0 -0
v -1 0 -1
v 1 0 -1
v 3 0 -1
v -3 0 -2
v -1 0 -2
v -1 2 4
v 1 2 4
v -1 2 2
v 1 2 2
v 1 2 1
v 3 2 1
v -3 2 -0
v -2 2 -0
v -2 2 -1
v -1 2 -1
v 1 2 -1
v 3 2 -1
v -3 2 -2
v -1 2 -2
v -2 3 2
v 1 3 2
v -2 3 -1
v 1 3 -1

# faces
f 3/2/1 2/2/1 1/2/1
f 4/2/1 2/2/1 3/2/1
f 7/1/1 6/1/1 5/1/1
f 9/1/1 7/1/1 5/1/1
f 9/1/1 8/1/1 7/1/1
f 10/1/1 8/1/1 9/1/1
f 13/2/1 12/2/1 11/2/1
f 14/2/1 12/2/1 13/2/1
f 15/2/2 16/2/2 17/2/2
f 17/2/2 16/2/2 18/2/2
f 19/2/2 20/2/2 22/2/2
f 20/1/2 21/1/2 23/1/2
f 22/2/2 20/2/2 23/2/2
f 23/1/2 21/1/2 24/1/2
f 24/1/2 25/1/2 26/1/2
f 23/1/2 24/1/2 26/1/2
f 26/1/2 25/1/2 27/1/2
f 28/2/2 29/2/2 30/2/2
f 30/2/2 29/2/2 31/2/2
f 34/2/3 33/2/3 32/2/3
f 35/2/3 33/2/3 34/2/3
f 38/1/3 37/1/3 36/1/3
f 39/1/3 37/1/3 38/1/3
f 40/1/3 37/1/3 39/1/3
f 41/1/3 37/1/3 40/1/3
f 44/2/3 43/2/3 42/2/3
f 45/2/3 43/2/3 44/2/3
f 48/2/3 47/2/3 46/2/3
f 49/2/3 47/2/3 48/2/3
f 50/1/4 51/1/4 53/1/4
f 52/1/4 53/1/4 54/1/4
f 53/1/4 51/1/4 55/1/4
f 54/1/4 53/1/4 55/1/4
f 55/1/4 51/1/4 56/1/4
f 54/2/4 55/2/4 57/2/4
f 57/2/4 55/2/4 58/2/4
f 59/2/4 60/2/4 61/2/4
f 61/2/4 60/2/4 62/2/4
f 66/2/5 64/2/5 63/2/5
f 67/2/5 64/2/5 66/2/5
f 68/1/5 66/1/5 65/1/5
f 68/1/5 67/1/5 66/1/5
f 71/1/5 68/1/5 65/1/5
f 72/1/5 68/1/5 71/1/5
f 73/2/5 71/2/5 70/2/5
f 73/1/5 68/1/5 72/1/5
f 73/2/5 72/2/5 71/2/5
f 74/2/5 69/2/5 68/2/5
f 74/1/5 68/1/5 73/1/5
f 75/2/5 69/2/5 74/2/5
f 76/2/5 73/2/5 70/2/5
f 77/2/5 73/2/5 76/2/5
f 78/2/6 79/2/6 80/2/6
f 80/2/6 79/2/6 81/2/6
f 84/2/6 85/2/6 86/2/6
f 82/2/6 83/2/6 88/2/6
f 88/2/6 83/2/6 89/2/6
f 86/2/6 87/2/6 90/2/6
f 84/2/6 86/2/6 90/2/6
f 90/2/6 87/2/6 91/2/6
f 92/1/6 93/1/6 94/1/6
f 94/1/6 93/1/6 95/1/6
