# MagicaVoxel @ Ephtracy

# group
g Computer-1

# material
mtllib Computer-1.mtl
usemtl palette

# normals
vn -1 0 0
vn 1 0 0
vn 0 0 1
vn 0 0 -1
vn 0 -1 0
vn 0 1 0

# texcoords
vt 0.876953 0.5
vt 0.880859 0.5
vt 0.884766 0.5

# verts
v -9 0 9
v -9 0 -9
v -9 20 9
v -9 20 -9
v 7 7 9
v 7 7 8
v 7 18 9
v 7 18 8
v -7 7 9
v -7 7 8
v -7 18 9
v -7 18 8
v 9 0 9
v 9 0 -9
v 9 20 9
v 9 20 -9
v -9 0 9
v -9 20 9
v -7 7 9
v -7 18 9
v -6 3 9
v -6 5 9
v 6 3 9
v 6 5 9
v 7 7 9
v 7 18 9
v 9 0 9
v 9 20 9
v -7 7 8
v -7 18 8
v 7 7 8
v 7 18 8
v -9 0 -9
v -9 20 -9
v 9 0 -9
v 9 20 -9
v -9 0 9
v 9 0 9
v -9 0 -9
v 9 0 -9
v -7 18 9
v 7 18 9
v -7 18 8
v 7 18 8
v -7 7 9
v 7 7 9
v -7 7 8
v 7 7 8
v -9 20 9
v 9 20 9
v -9 20 -9
v 9 20 -9

# faces
f 3/3/1 2/3/1 1/3/1
f 4/3/1 2/3/1 3/3/1
f 7/3/1 6/3/1 5/3/1
f 8/3/1 6/3/1 7/3/1
f 9/3/2 10/3/2 11/3/2
f 11/3/2 10/3/2 12/3/2
f 13/3/2 14/3/2 15/3/2
f 15/3/2 14/3/2 16/3/2
f 19/3/3 18/3/3 17/3/3
f 20/3/3 18/3/3 19/3/3
f 21/3/3 19/3/3 17/3/3
f 22/3/3 19/3/3 21/3/3
f 23/3/3 21/3/3 17/3/3
f 23/1/3 22/1/3 21/1/3
f 24/3/3 19/3/3 22/3/3
f 24/1/3 22/1/3 23/1/3
f 25/3/3 24/3/3 23/3/3
f 25/3/3 19/3/3 24/3/3
f 26/3/3 18/3/3 20/3/3
f 27/3/3 25/3/3 23/3/3
f 27/3/3 26/3/3 25/3/3
f 27/3/3 23/3/3 17/3/3
f 28/3/3 18/3/3 26/3/3
f 28/3/3 26/3/3 27/3/3
f 31/2/3 30/2/3 29/2/3
f 32/2/3 30/2/3 31/2/3
f 33/3/4 34/3/4 35/3/4
f 35/3/4 34/3/4 36/3/4
f 39/3/5 38/3/5 37/3/5
f 40/3/5 38/3/5 39/3/5
f 43/3/5 42/3/5 41/3/5
f 44/3/5 42/3/5 43/3/5
f 45/3/6 46/3/6 47/3/6
f 47/3/6 46/3/6 48/3/6
f 49/3/6 50/3/6 51/3/6
f 51/3/6 50/3/6 52/3/6
