# MagicaVoxel @ Ephtracy

# group
g Gun-1

# material
mtllib Gun-1.mtl
usemtl palette

# normals
vn -1 0 0
vn 1 0 0
vn 0 0 1
vn 0 0 -1
vn 0 -1 0
vn 0 1 0

# texcoords
vt 0.947266 0.5
vt 0.970703 0.5
vt 0.982422 0.5

# verts
v -32.5 10 1.5
v -32.5 10 -1.5
v -32.5 13 1.5
v -32.5 13 -1.5
v -12.5 7 1.5
v -12.5 7 -1.5
v -12.5 10 1.5
v -12.5 10 -1.5
v -11.5 6 0.5
v -11.5 6 -0.5
v -11.5 7 0.5
v -11.5 7 -0.5
v -9.5 5 0.5
v -9.5 5 -0.5
v -9.5 6 0.5
v -9.5 6 -0.5
v -7.5 4 0.5
v -7.5 4 -0.5
v -7.5 5 0.5
v -7.5 5 -0.5
v -6.5 5 0.5
v -6.5 5 -0.5
v -6.5 6 0.5
v -6.5 6 -0.5
v -5.5 6 0.5
v -5.5 6 -0.5
v -5.5 7 0.5
v -5.5 7 -0.5
v 1.5 6 1.5
v 1.5 6 -1.5
v 1.5 7 1.5
v 1.5 7 -1.5
v 2.5 1 1.5
v 2.5 1 -1.5
v 2.5 6 1.5
v 2.5 6 -1.5
v 2.5 13 1.5
v 2.5 13 -1.5
v 2.5 15 0.5
v 2.5 15 -0.5
v 2.5 16 1.5
v 2.5 16 0.5
v 2.5 16 -0.5
v 2.5 16 -1.5
v 9.5 5 1.5
v 9.5 5 -1.5
v 9.5 6 1.5
v 9.5 6 -1.5
v 12.5 6 0.5
v 12.5 6 -0.5
v 12.5 8 0.5
v 12.5 8 -0.5
v 14.5 3 1.5
v 14.5 3 -1.5
v 14.5 5 1.5
v 14.5 5 -1.5
v 14.5 6 1.5
v 14.5 6 0.5
v 14.5 6 -0.5
v 14.5 6 -1.5
v 14.5 8 1.5
v 14.5 8 0.5
v 14.5 8 -0.5
v 14.5 8 -1.5
v 15.5 0 1.5
v 15.5 0 -1.5
v 15.5 3 1.5
v 15.5 3 -1.5
v 22.5 5 1.5
v 22.5 5 -1.5
v 22.5 6 0.5
v 22.5 6 -0.5
v 22.5 7 1.5
v 22.5 7 0.5
v 22.5 7 -0.5
v 22.5 7 -1.5
v 24.5 3 1.5
v 24.5 3 -1.5
v 24.5 5 1.5
v 24.5 5 -1.5
v 26.5 1 1.5
v 26.5 1 -1.5
v 26.5 3 1.5
v 26.5 3 -1.5
v -9.5 6 0.5
v -9.5 6 -0.5
v -9.5 7 0.5
v -9.5 7 -0.5
v -7.5 5 0.5
v -7.5 5 -0.5
v -7.5 6 0.5
v -7.5 6 -0.5
v -6.5 4 0.5
v -6.5 4 -0.5
v -6.5 5 0.5
v -6.5 5 -0.5
v -5.5 5 0.5
v -5.5 5 -0.5
v -5.5 6 0.5
v -5.5 6 -0.5
v -3.5 6 0.5
v -3.5 6 -0.5
v -3.5 7 0.5
v -3.5 7 -0.5
v 5.5 15 1.5
v 5.5 15 0.5
v 5.5 15 -0.5
v 5.5 15 -1.5
v 5.5 16 1.5
v 5.5 16 0.5
v 5.5 16 -0.5
v 5.5 16 -1.5
v 8.5 1 1.5
v 8.5 1 -1.5
v 8.5 6 1.5
v 8.5 6 -1.5
v 8.5 13 1.5
v 8.5 13 -1.5
v 8.5 15 1.5
v 8.5 15 -1.5
v 9.5 6 1.5
v 9.5 6 -1.5
v 9.5 8 1.5
v 9.5 8 -1.5
v 17.5 3 1.5
v 17.5 3 -1.5
v 17.5 5 1.5
v 17.5 5 -1.5
v 18.5 0 1.5
v 18.5 0 -1.5
v 18.5 3 1.5
v 18.5 3 -1.5
v 18.5 5 1.5
v 18.5 5 -1.5
v 18.5 6 0.5
v 18.5 6 -0.5
v 18.5 7 1.5
v 18.5 7 0.5
v 18.5 7 -0.5
v 18.5 7 -1.5
v 18.5 11 1.5
v 18.5 11 -1.5
v 18.5 13 1.5
v 18.5 13 -1.5
v 32.5 1 1.5
v 32.5 1 -1.5
v 32.5 11 1.5
v 32.5 11 -1.5
v -32.5 10 1.5
v -32.5 13 1.5
v -12.5 7 1.5
v -12.5 10 1.5
v 1.5 6 1.5
v 1.5 7 1.5
v 2.5 1 1.5
v 2.5 6 1.5
v 2.5 13 1.5
v 2.5 16 1.5
v 5.5 15 1.5
v 5.5 16 1.5
v 8.5 1 1.5
v 8.5 6 1.5
v 8.5 13 1.5
v 8.5 15 1.5
v 9.5 5 1.5
v 9.5 6 1.5
v 9.5 8 1.5
v 14.5 3 1.5
v 14.5 5 1.5
v 14.5 6 1.5
v 14.5 8 1.5
v 15.5 0 1.5
v 15.5 3 1.5
v 17.5 3 1.5
v 17.5 5 1.5
v 18.5 0 1.5
v 18.5 3 1.5
v 18.5 5 1.5
v 18.5 7 1.5
v 18.5 10 1.5
v 18.5 11 1.5
v 18.5 13 1.5
v 22.5 5 1.5
v 22.5 7 1.5
v 24.5 3 1.5
v 24.5 5 1.5
v 26.5 1 1.5
v 26.5 3 1.5
v 32.5 1 1.5
v 32.5 11 1.5
v -11.5 6 0.5
v -11.5 7 0.5
v -9.5 5 0.5
v -9.5 6 0.5
v -9.5 7 0.5
v -7.5 4 0.5
v -7.5 5 0.5
v -7.5 6 0.5
v -6.5 4 0.5
v -6.5 5 0.5
v -6.5 6 0.5
v -5.5 5 0.5
v -5.5 6 0.5
v -5.5 7 0.5
v -3.5 6 0.5
v -3.5 7 0.5
v 12.5 6 0.5
v 12.5 8 0.5
v 14.5 6 0.5
v 14.5 8 0.5
v 18.5 6 0.5
v 18.5 7 0.5
v 22.5 6 0.5
v 22.5 7 0.5
v 2.5 15 -0.5
v 2.5 16 -0.5
v 5.5 15 -0.5
v 5.5 16 -0.5
v 2.5 15 0.5
v 2.5 16 0.5
v 5.5 15 0.5
v 5.5 16 0.5
v -11.5 6 -0.5
v -11.5 7 -0.5
v -9.5 5 -0.5
v -9.5 6 -0.5
v -9.5 7 -0.5
v -7.5 4 -0.5
v -7.5 5 -0.5
v -7.5 6 -0.5
v -6.5 4 -0.5
v -6.5 5 -0.5
v -6.5 6 -0.5
v -5.5 5 -0.5
v -5.5 6 -0.5
v -5.5 7 -0.5
v -3.5 6 -0.5
v -3.5 7 -0.5
v 12.5 6 -0.5
v 12.5 8 -0.5
v 14.5 6 -0.5
v 14.5 8 -0.5
v 18.5 6 -0.5
v 18.5 7 -0.5
v 22.5 6 -0.5
v 22.5 7 -0.5
v -32.5 10 -1.5
v -32.5 13 -1.5
v -12.5 7 -1.5
v -12.5 10 -1.5
v 1.5 6 -1.5
v 1.5 7 -1.5
v 2.5 1 -1.5
v 2.5 6 -1.5
v 2.5 13 -1.5
v 2.5 16 -1.5
v 5.5 15 -1.5
v 5.5 16 -1.5
v 8.5 1 -1.5
v 8.5 6 -1.5
v 8.5 13 -1.5
v 8.5 15 -1.5
v 9.5 5 -1.5
v 9.5 6 -1.5
v 9.5 8 -1.5
v 14.5 3 -1.5
v 14.5 5 -1.5
v 14.5 6 -1.5
v 14.5 8 -1.5
v 15.5 0 -1.5
v 15.5 3 -1.5
v 17.5 3 -1.5
v 17.5 5 -1.5
v 18.5 0 -1.5
v 18.5 3 -1.5
v 18.5 5 -1.5
v 18.5 7 -1.5
v 18.5 10 -1.5
v 18.5 11 -1.5
v 18.5 13 -1.5
v 22.5 5 -1.5
v 22.5 7 -1.5
v 24.5 3 -1.5
v 24.5 5 -1.5
v 26.5 1 -1.5
v 26.5 3 -1.5
v 32.5 1 -1.5
v 32.5 11 -1.5
v 15.5 0 1.5
v 18.5 0 1.5
v 15.5 0 -1.5
v 18.5 0 -1.5
v 2.5 1 1.5
v 8.5 1 1.5
v 26.5 1 1.5
v 32.5 1 1.5
v 2.5 1 -1.5
v 8.5 1 -1.5
v 26.5 1 -1.5
v 32.5 1 -1.5
v 14.5 3 1.5
v 15.5 3 1.5
v 24.5 3 1.5
v 26.5 3 1.5
v 14.5 3 -1.5
v 15.5 3 -1.5
v 24.5 3 -1.5
v 26.5 3 -1.5
v -7.5 4 0.5
v -6.5 4 0.5
v -7.5 4 -0.5
v -6.5 4 -0.5
v 9.5 5 1.5
v 14.5 5 1.5
v 17.5 5 1.5
v 18.5 5 1.5
v 22.5 5 1.5
v 24.5 5 1.5
v -9.5 5 0.5
v -7.5 5 0.5
v -6.5 5 0.5
v -5.5 5 0.5
v -9.5 5 -0.5
v -7.5 5 -0.5
v -6.5 5 -0.5
v -5.5 5 -0.5
v 9.5 5 -1.5
v 14.5 5 -1.5
v 17.5 5 -1.5
v 18.5 5 -1.5
v 22.5 5 -1.5
v 24.5 5 -1.5
v 1.5 6 1.5
v 2.5 6 1.5
v 8.5 6 1.5
v 9.5 6 1.5
v -11.5 6 0.5
v -9.5 6 0.5
v -5.5 6 0.5
v -3.5 6 0.5
v 18.5 6 0.5
v 22.5 6 0.5
v -11.5 6 -0.5
v -9.5 6 -0.5
v -5.5 6 -0.5
v -3.5 6 -0.5
v 18.5 6 -0.5
v 22.5 6 -0.5
v 1.5 6 -1.5
v 2.5 6 -1.5
v 8.5 6 -1.5
v 9.5 6 -1.5
v -12.5 7 1.5
v 1.5 7 1.5
v 18.5 7 1.5
v 22.5 7 1.5
v -11.5 7 0.5
v -9.5 7 0.5
v -5.5 7 0.5
v -3.5 7 0.5
v 18.5 7 0.5
v 22.5 7 0.5
v -11.5 7 -0.5
v -9.5 7 -0.5
v -5.5 7 -0.5
v -3.5 7 -0.5
v 18.5 7 -0.5
v 22.5 7 -0.5
v -12.5 7 -1.5
v 1.5 7 -1.5
v 18.5 7 -1.5
v 22.5 7 -1.5
v 9.5 8 1.5
v 14.5 8 1.5
v 12.5 8 0.5
v 14.5 8 0.5
v 12.5 8 -0.5
v 14.5 8 -0.5
v 9.5 8 -1.5
v 14.5 8 -1.5
v -32.5 10 1.5
v -12.5 10 1.5
v -32.5 10 -1.5
v -12.5 10 -1.5
v 17.5 3 1.5
v 18.5 3 1.5
v 17.5 3 -1.5
v 18.5 3 -1.5
v -7.5 5 0.5
v -6.5 5 0.5
v -7.5 5 -0.5
v -6.5 5 -0.5
v 9.5 6 1.5
v 14.5 6 1.5
v -9.5 6 0.5
v -7.5 6 0.5
v -6.5 6 0.5
v -5.5 6 0.5
v 12.5 6 0.5
v 14.5 6 0.5
v -9.5 6 -0.5
v -7.5 6 -0.5
v -6.5 6 -0.5
v -5.5 6 -0.5
v 12.5 6 -0.5
v 14.5 6 -0.5
v 9.5 6 -1.5
v 14.5 6 -1.5
v 18.5 11 1.5
v 32.5 11 1.5
v 18.5 11 -1.5
v 32.5 11 -1.5
v -32.5 13 1.5
v 2.5 13 1.5
v 8.5 13 1.5
v 18.5 13 1.5
v -32.5 13 -1.5
v 2.5 13 -1.5
v 8.5 13 -1.5
v 18.5 13 -1.5
v 5.5 15 1.5
v 8.5 15 1.5
v 2.5 15 0.5
v 5.5 15 0.5
v 2.5 15 -0.5
v 5.5 15 -0.5
v 5.5 15 -1.5
v 8.5 15 -1.5
v 2.5 16 1.5
v 5.5 16 1.5
v 2.5 16 0.5
v 5.5 16 0.5
v 2.5 16 -0.5
v 5.5 16 -0.5
v 2.5 16 -1.5
v 5.5 16 -1.5

# faces
f 3/3/1 2/3/1 1/3/1
f 4/3/1 2/3/1 3/3/1
f 7/2/1 6/2/1 5/2/1
f 8/2/1 6/2/1 7/2/1
f 11/2/1 10/2/1 9/2/1
f 12/2/1 10/2/1 11/2/1
f 15/2/1 14/2/1 13/2/1
f 16/2/1 14/2/1 15/2/1
f 19/2/1 18/2/1 17/2/1
f 20/2/1 18/2/1 19/2/1
f 23/2/1 22/2/1 21/2/1
f 24/2/1 22/2/1 23/2/1
f 27/2/1 26/2/1 25/2/1
f 28/2/1 26/2/1 27/2/1
f 31/2/1 30/2/1 29/2/1
f 32/2/1 30/2/1 31/2/1
f 35/1/1 34/1/1 33/1/1
f 36/1/1 34/1/1 35/1/1
f 39/2/1 38/2/1 37/2/1
f 40/2/1 38/2/1 39/2/1
f 41/2/1 39/2/1 37/2/1
f 42/2/1 39/2/1 41/2/1
f 43/2/1 38/2/1 40/2/1
f 44/2/1 38/2/1 43/2/1
f 47/2/1 46/2/1 45/2/1
f 48/2/1 46/2/1 47/2/1
f 51/2/1 50/2/1 49/2/1
f 52/2/1 50/2/1 51/2/1
f 55/2/1 54/2/1 53/2/1
f 56/2/1 54/2/1 55/2/1
f 61/2/1 58/2/1 57/2/1
f 62/2/1 58/2/1 61/2/1
f 63/2/1 60/2/1 59/2/1
f 64/2/1 60/2/1 63/2/1
f 67/2/1 66/2/1 65/2/1
f 68/2/1 66/2/1 67/2/1
f 71/2/1 70/2/1 69/2/1
f 72/2/1 70/2/1 71/2/1
f 73/2/1 71/2/1 69/2/1
f 74/2/1 71/2/1 73/2/1
f 75/2/1 70/2/1 72/2/1
f 76/2/1 70/2/1 75/2/1
f 79/2/1 78/2/1 77/2/1
f 80/2/1 78/2/1 79/2/1
f 83/2/1 82/2/1 81/2/1
f 84/2/1 82/2/1 83/2/1
f 85/2/2 86/2/2 87/2/2
f 87/2/2 86/2/2 88/2/2
f 89/2/2 90/2/2 91/2/2
f 91/2/2 90/2/2 92/2/2
f 93/2/2 94/2/2 95/2/2
f 95/2/2 94/2/2 96/2/2
f 97/2/2 98/2/2 99/2/2
f 99/2/2 98/2/2 100/2/2
f 101/2/2 102/2/2 103/2/2
f 103/2/2 102/2/2 104/2/2
f 105/2/2 106/2/2 109/2/2
f 109/2/2 106/2/2 110/2/2
f 107/2/2 108/2/2 111/2/2
f 111/2/2 108/2/2 112/2/2
f 113/1/2 114/1/2 115/1/2
f 115/1/2 114/1/2 116/1/2
f 117/2/2 118/2/2 119/2/2
f 119/2/2 118/2/2 120/2/2
f 121/2/2 122/2/2 123/2/2
f 123/2/2 122/2/2 124/2/2
f 125/2/2 126/2/2 127/2/2
f 127/2/2 126/2/2 128/2/2
f 129/2/2 130/2/2 131/2/2
f 131/2/2 130/2/2 132/2/2
f 133/2/2 134/2/2 135/2/2
f 135/2/2 134/2/2 136/2/2
f 133/2/2 135/2/2 137/2/2
f 137/2/2 135/2/2 138/2/2
f 136/2/2 134/2/2 139/2/2
f 139/2/2 134/2/2 140/2/2
f 141/3/2 142/3/2 143/3/2
f 143/3/2 142/3/2 144/3/2
f 145/2/2 146/2/2 147/2/2
f 147/2/2 146/2/2 148/2/2
f 152/3/3 150/3/3 149/3/3
f 154/2/3 152/2/3 151/2/3
f 156/2/3 154/2/3 153/2/3
f 157/3/3 150/3/3 152/3/3
f 159/2/3 158/2/3 157/2/3
f 160/2/3 158/2/3 159/2/3
f 161/1/3 156/1/3 155/1/3
f 162/2/3 154/2/3 156/2/3
f 162/1/3 156/1/3 161/1/3
f 163/3/3 157/3/3 152/3/3
f 163/2/3 159/2/3 157/2/3
f 164/2/3 159/2/3 163/2/3
f 166/2/3 154/2/3 162/2/3
f 167/2/3 152/2/3 154/2/3
f 167/2/3 154/2/3 166/2/3
f 169/2/3 166/2/3 165/2/3
f 170/2/3 166/2/3 169/2/3
f 171/2/3 152/2/3 167/2/3
f 173/2/3 170/2/3 169/2/3
f 173/2/3 171/2/3 170/2/3
f 173/2/3 169/2/3 168/2/3
f 174/2/3 171/2/3 173/2/3
f 174/2/3 173/2/3 172/2/3
f 175/2/3 171/2/3 174/2/3
f 176/2/3 174/2/3 172/2/3
f 177/2/3 174/2/3 176/2/3
f 178/2/3 171/2/3 175/2/3
f 179/2/3 171/2/3 178/2/3
f 180/2/3 152/2/3 171/2/3
f 180/2/3 171/2/3 179/2/3
f 180/3/3 163/3/3 152/3/3
f 181/3/3 163/3/3 180/3/3
f 182/3/3 163/3/3 181/3/3
f 184/2/3 181/2/3 180/2/3
f 184/2/3 180/2/3 179/2/3
f 186/2/3 184/2/3 183/2/3
f 188/2/3 186/2/3 185/2/3
f 189/2/3 188/2/3 187/2/3
f 190/2/3 181/2/3 184/2/3
f 190/2/3 188/2/3 189/2/3
f 190/2/3 184/2/3 186/2/3
f 190/2/3 186/2/3 188/2/3
f 194/2/3 192/2/3 191/2/3
f 195/2/3 192/2/3 194/2/3
f 197/2/3 194/2/3 193/2/3
f 198/2/3 194/2/3 197/2/3
f 199/2/3 197/2/3 196/2/3
f 200/2/3 197/2/3 199/2/3
f 202/2/3 201/2/3 200/2/3
f 203/2/3 201/2/3 202/2/3
f 205/2/3 204/2/3 203/2/3
f 206/2/3 204/2/3 205/2/3
f 209/2/3 208/2/3 207/2/3
f 210/2/3 208/2/3 209/2/3
f 213/2/3 212/2/3 211/2/3
f 214/2/3 212/2/3 213/2/3
f 217/2/3 216/2/3 215/2/3
f 218/2/3 216/2/3 217/2/3
f 219/2/4 220/2/4 221/2/4
f 221/2/4 220/2/4 222/2/4
f 223/2/4 224/2/4 226/2/4
f 226/2/4 224/2/4 227/2/4
f 225/2/4 226/2/4 229/2/4
f 229/2/4 226/2/4 230/2/4
f 228/2/4 229/2/4 231/2/4
f 231/2/4 229/2/4 232/2/4
f 232/2/4 233/2/4 234/2/4
f 234/2/4 233/2/4 235/2/4
f 235/2/4 236/2/4 237/2/4
f 237/2/4 236/2/4 238/2/4
f 239/2/4 240/2/4 241/2/4
f 241/2/4 240/2/4 242/2/4
f 243/2/4 244/2/4 245/2/4
f 245/2/4 244/2/4 246/2/4
f 247/3/4 248/3/4 250/3/4
f 249/2/4 250/2/4 252/2/4
f 251/2/4 252/2/4 254/2/4
f 250/3/4 248/3/4 255/3/4
f 255/2/4 256/2/4 257/2/4
f 257/2/4 256/2/4 258/2/4
f 253/1/4 254/1/4 259/1/4
f 254/2/4 252/2/4 260/2/4
f 259/1/4 254/1/4 260/1/4
f 250/3/4 255/3/4 261/3/4
f 255/2/4 257/2/4 261/2/4
f 261/2/4 257/2/4 262/2/4
f 260/2/4 252/2/4 264/2/4
f 252/2/4 250/2/4 265/2/4
f 264/2/4 252/2/4 265/2/4
f 263/2/4 264/2/4 267/2/4
f 267/2/4 264/2/4 268/2/4
f 265/2/4 250/2/4 269/2/4
f 267/2/4 268/2/4 271/2/4
f 268/2/4 269/2/4 271/2/4
f 266/2/4 267/2/4 271/2/4
f 271/2/4 269/2/4 272/2/4
f 270/2/4 271/2/4 272/2/4
f 272/2/4 269/2/4 273/2/4
f 270/2/4 272/2/4 274/2/4
f 274/2/4 272/2/4 275/2/4
f 273/2/4 269/2/4 276/2/4
f 276/2/4 269/2/4 277/2/4
f 269/2/4 250/2/4 278/2/4
f 277/2/4 269/2/4 278/2/4
f 250/3/4 261/3/4 278/3/4
f 278/3/4 261/3/4 279/3/4
f 279/3/4 261/3/4 280/3/4
f 278/2/4 279/2/4 282/2/4
f 277/2/4 278/2/4 282/2/4
f 281/2/4 282/2/4 284/2/4
f 283/2/4 284/2/4 286/2/4
f 285/2/4 286/2/4 287/2/4
f 282/2/4 279/2/4 288/2/4
f 287/2/4 286/2/4 288/2/4
f 284/2/4 282/2/4 288/2/4
f 286/2/4 284/2/4 288/2/4
f 291/2/5 290/2/5 289/2/5
f 292/2/5 290/2/5 291/2/5
f 297/1/5 294/1/5 293/1/5
f 298/1/5 294/1/5 297/1/5
f 299/2/5 296/2/5 295/2/5
f 300/2/5 296/2/5 299/2/5
f 305/2/5 302/2/5 301/2/5
f 306/2/5 302/2/5 305/2/5
f 307/2/5 304/2/5 303/2/5
f 308/2/5 304/2/5 307/2/5
f 311/2/5 310/2/5 309/2/5
f 312/2/5 310/2/5 311/2/5
f 323/2/5 320/2/5 319/2/5
f 324/2/5 320/2/5 323/2/5
f 325/2/5 322/2/5 321/2/5
f 326/2/5 322/2/5 325/2/5
f 327/2/5 314/2/5 313/2/5
f 328/2/5 314/2/5 327/2/5
f 329/2/5 316/2/5 315/2/5
f 330/2/5 316/2/5 329/2/5
f 331/2/5 318/2/5 317/2/5
f 332/2/5 318/2/5 331/2/5
f 343/2/5 338/2/5 337/2/5
f 344/2/5 338/2/5 343/2/5
f 345/2/5 340/2/5 339/2/5
f 346/2/5 340/2/5 345/2/5
f 347/2/5 342/2/5 341/2/5
f 348/2/5 342/2/5 347/2/5
f 349/2/5 334/2/5 333/2/5
f 350/2/5 334/2/5 349/2/5
f 351/2/5 336/2/5 335/2/5
f 352/2/5 336/2/5 351/2/5
f 357/2/5 354/2/5 353/2/5
f 358/2/5 354/2/5 357/2/5
f 359/2/5 354/2/5 358/2/5
f 360/2/5 354/2/5 359/2/5
f 361/2/5 356/2/5 355/2/5
f 362/2/5 356/2/5 361/2/5
f 363/2/5 357/2/5 353/2/5
f 364/2/5 359/2/5 358/2/5
f 365/2/5 359/2/5 364/2/5
f 366/2/5 354/2/5 360/2/5
f 369/2/5 365/2/5 364/2/5
f 369/2/5 363/2/5 353/2/5
f 369/2/5 366/2/5 365/2/5
f 369/2/5 364/2/5 363/2/5
f 370/2/5 354/2/5 366/2/5
f 370/2/5 366/2/5 369/2/5
f 371/2/5 368/2/5 367/2/5
f 372/2/5 368/2/5 371/2/5
f 375/2/5 374/2/5 373/2/5
f 376/2/5 374/2/5 375/2/5
f 377/2/5 375/2/5 373/2/5
f 379/2/5 377/2/5 373/2/5
f 379/2/5 378/2/5 377/2/5
f 380/2/5 378/2/5 379/2/5
f 383/3/5 382/3/5 381/3/5
f 384/3/5 382/3/5 383/3/5
f 385/2/6 386/2/6 387/2/6
f 387/2/6 386/2/6 388/2/6
f 389/2/6 390/2/6 391/2/6
f 391/2/6 390/2/6 392/2/6
f 393/2/6 394/2/6 399/2/6
f 399/2/6 394/2/6 400/2/6
f 395/2/6 396/2/6 401/2/6
f 401/2/6 396/2/6 402/2/6
f 397/2/6 398/2/6 403/2/6
f 403/2/6 398/2/6 404/2/6
f 393/2/6 399/2/6 405/2/6
f 405/2/6 406/2/6 407/2/6
f 393/2/6 405/2/6 407/2/6
f 407/2/6 406/2/6 408/2/6
f 409/2/6 410/2/6 411/2/6
f 411/2/6 410/2/6 412/2/6
f 413/3/6 414/3/6 417/3/6
f 417/3/6 414/3/6 418/3/6
f 415/3/6 416/3/6 419/3/6
f 419/3/6 416/3/6 420/3/6
f 421/2/6 422/2/6 424/2/6
f 423/2/6 424/2/6 425/2/6
f 424/2/6 422/2/6 426/2/6
f 425/2/6 424/2/6 426/2/6
f 426/2/6 422/2/6 427/2/6
f 427/2/6 422/2/6 428/2/6
f 429/2/6 430/2/6 431/2/6
f 431/2/6 430/2/6 432/2/6
f 433/2/6 434/2/6 435/2/6
f 435/2/6 434/2/6 436/2/6
