# MagicaVoxel @ Ephtracy

# group
g Gun-0

# material
mtllib Gun-0.mtl
usemtl palette

# normals
vn -1 0 0
vn 1 0 0
vn 0 0 1
vn 0 0 -1
vn 0 -1 0
vn 0 1 0

# texcoords
vt 0.943359 0.5
vt 0.970703 0.5
vt 0.982422 0.5
vt 0.994141 0.5

# verts
v -27 6 1.5
v -27 6 -1.5
v -27 9 1.5
v -27 9 -1.5
v -18 4 0.5
v -18 4 -0.5
v -18 5 0.5
v -18 5 -0.5
v -16 3 1.5
v -16 3 -1.5
v -16 4 0.5
v -16 4 -0.5
v -16 5 0.5
v -16 5 -0.5
v -16 6 1.5
v -16 6 -1.5
v 3 3 1.5
v 3 3 -1.5
v 3 4 0.5
v 3 4 -0.5
v 3 5 0.5
v 3 5 -0.5
v 3 6 1.5
v 3 6 -1.5
v 4 2 1.5
v 4 2 -1.5
v 4 3 1.5
v 4 3 -1.5
v 7 3 0.5
v 7 3 -0.5
v 7 5 0.5
v 7 5 -0.5
v 9 3 1.5
v 9 3 0.5
v 9 3 -0.5
v 9 3 -1.5
v 9 5 1.5
v 9 5 0.5
v 9 5 -0.5
v 9 5 -1.5
v 10 1 1.5
v 10 1 -1.5
v 10 2 1.5
v 10 2 -1.5
v 10 7 -0.5
v 10 7 -1.5
v 10 8 -0.5
v 10 8 -1.5
v 18 0 1.5
v 18 0 -1.5
v 18 1 1.5
v 18 1 -1.5
v -6 3 1.5
v -6 3 -1.5
v -6 4 0.5
v -6 4 -0.5
v -6 5 0.5
v -6 5 -0.5
v -6 6 1.5
v -6 6 -1.5
v 4 3 1.5
v 4 3 -1.5
v 4 5 1.5
v 4 5 -1.5
v 4 7 -0.5
v 4 7 -1.5
v 4 8 -0.5
v 4 8 -1.5
v 14 6 1.5
v 14 6 -1.5
v 14 9 1.5
v 14 9 -1.5
v 18 5 1.5
v 18 5 -1.5
v 18 6 1.5
v 18 6 -1.5
v 27 0 1.5
v 27 0 -1.5
v 27 5 1.5
v 27 5 -1.5
v -27 6 1.5
v -27 9 1.5
v -16 3 1.5
v -16 6 1.5
v -6 3 1.5
v -6 6 1.5
v 3 3 1.5
v 3 6 1.5
v 4 2 1.5
v 4 3 1.5
v 4 5 1.5
v 9 3 1.5
v 9 5 1.5
v 10 1 1.5
v 10 2 1.5
v 10 6 1.5
v 14 6 1.5
v 14 9 1.5
v 18 0 1.5
v 18 1 1.5
v 18 5 1.5
v 18 6 1.5
v 27 0 1.5
v 27 5 1.5
v -18 4 0.5
v -18 5 0.5
v -16 4 0.5
v -16 5 0.5
v -6 4 0.5
v -6 5 0.5
v 3 4 0.5
v 3 5 0.5
v 7 3 0.5
v 7 5 0.5
v 9 3 0.5
v 9 5 0.5
v -18 4 -0.5
v -18 5 -0.5
v -16 4 -0.5
v -16 5 -0.5
v -6 4 -0.5
v -6 5 -0.5
v 3 4 -0.5
v 3 5 -0.5
v 4 7 -0.5
v 4 8 -0.5
v 7 3 -0.5
v 7 5 -0.5
v 9 3 -0.5
v 9 5 -0.5
v 10 7 -0.5
v 10 8 -0.5
v -27 6 -1.5
v -27 9 -1.5
v -16 3 -1.5
v -16 6 -1.5
v -6 3 -1.5
v -6 6 -1.5
v 3 3 -1.5
v 3 6 -1.5
v 4 2 -1.5
v 4 3 -1.5
v 4 5 -1.5
v 4 7 -1.5
v 4 8 -1.5
v 9 3 -1.5
v 9 5 -1.5
v 10 1 -1.5
v 10 2 -1.5
v 10 6 -1.5
v 10 7 -1.5
v 10 8 -1.5
v 14 6 -1.5
v 14 9 -1.5
v 18 0 -1.5
v 18 1 -1.5
v 18 5 -1.5
v 18 6 -1.5
v 27 0 -1.5
v 27 5 -1.5
v 18 0 1.5
v 27 0 1.5
v 18 0 -1.5
v 27 0 -1.5
v 10 1 1.5
v 18 1 1.5
v 10 1 -1.5
v 18 1 -1.5
v 4 2 1.5
v 10 2 1.5
v 4 2 -1.5
v 10 2 -1.5
v -16 3 1.5
v -6 3 1.5
v 3 3 1.5
v 4 3 1.5
v -16 3 -1.5
v -6 3 -1.5
v 3 3 -1.5
v 4 3 -1.5
v -18 4 0.5
v -16 4 0.5
v -6 4 0.5
v 3 4 0.5
v -18 4 -0.5
v -16 4 -0.5
v -6 4 -0.5
v 3 4 -0.5
v 4 5 1.5
v 9 5 1.5
v 7 5 0.5
v 9 5 0.5
v 7 5 -0.5
v 9 5 -0.5
v 4 5 -1.5
v 9 5 -1.5
v -27 6 1.5
v -16 6 1.5
v -6 6 1.5
v 3 6 1.5
v -27 6 -1.5
v -16 6 -1.5
v -6 6 -1.5
v 3 6 -1.5
v 4 8 -0.5
v 10 8 -0.5
v 4 8 -1.5
v 10 8 -1.5
v 4 3 1.5
v 9 3 1.5
v 7 3 0.5
v 9 3 0.5
v 7 3 -0.5
v 9 3 -0.5
v 4 3 -1.5
v 9 3 -1.5
v 18 5 1.5
v 27 5 1.5
v -18 5 0.5
v -16 5 0.5
v -6 5 0.5
v 3 5 0.5
v -18 5 -0.5
v -16 5 -0.5
v -6 5 -0.5
v 3 5 -0.5
v 18 5 -1.5
v 27 5 -1.5
v 14 6 1.5
v 18 6 1.5
v 14 6 -1.5
v 18 6 -1.5
v 4 7 -0.5
v 10 7 -0.5
v 4 7 -1.5
v 10 7 -1.5
v -27 9 1.5
v 14 9 1.5
v -27 9 -1.5
v 14 9 -1.5

# faces
f 3/3/1 2/3/1 1/3/1
f 4/3/1 2/3/1 3/3/1
f 7/2/1 6/2/1 5/2/1
f 8/2/1 6/2/1 7/2/1
f 11/4/1 10/4/1 9/4/1
f 12/4/1 10/4/1 11/4/1
f 13/4/1 11/4/1 9/4/1
f 14/4/1 10/4/1 12/4/1
f 15/4/1 13/4/1 9/4/1
f 15/4/1 14/4/1 13/4/1
f 16/4/1 10/4/1 14/4/1
f 16/4/1 14/4/1 15/4/1
f 19/2/1 18/2/1 17/2/1
f 20/2/1 18/2/1 19/2/1
f 21/2/1 19/2/1 17/2/1
f 22/2/1 18/2/1 20/2/1
f 23/2/1 21/2/1 17/2/1
f 23/2/1 22/2/1 21/2/1
f 24/2/1 18/2/1 22/2/1
f 24/2/1 22/2/1 23/2/1
f 27/2/1 26/2/1 25/2/1
f 28/2/1 26/2/1 27/2/1
f 31/2/1 30/2/1 29/2/1
f 32/2/1 30/2/1 31/2/1
f 37/2/1 34/2/1 33/2/1
f 38/2/1 34/2/1 37/2/1
f 39/2/1 36/2/1 35/2/1
f 40/2/1 36/2/1 39/2/1
f 43/1/1 42/1/1 41/1/1
f 44/1/1 42/1/1 43/1/1
f 47/3/1 46/3/1 45/3/1
f 48/3/1 46/3/1 47/3/1
f 51/1/1 50/1/1 49/1/1
f 52/1/1 50/1/1 51/1/1
f 53/4/2 54/4/2 55/4/2
f 55/4/2 54/4/2 56/4/2
f 53/4/2 55/4/2 57/4/2
f 56/4/2 54/4/2 58/4/2
f 53/4/2 57/4/2 59/4/2
f 57/4/2 58/4/2 59/4/2
f 58/4/2 54/4/2 60/4/2
f 59/4/2 58/4/2 60/4/2
f 61/2/2 62/2/2 63/2/2
f 63/2/2 62/2/2 64/2/2
f 65/3/2 66/3/2 67/3/2
f 67/3/2 66/3/2 68/3/2
f 69/3/2 70/3/2 71/3/2
f 71/3/2 70/3/2 72/3/2
f 73/1/2 74/1/2 75/1/2
f 75/1/2 74/1/2 76/1/2
f 77/1/2 78/1/2 79/1/2
f 79/1/2 78/1/2 80/1/2
f 84/3/3 82/3/3 81/3/3
f 85/4/3 84/4/3 83/4/3
f 86/3/3 82/3/3 84/3/3
f 86/4/3 84/4/3 85/4/3
f 88/3/3 82/3/3 86/3/3
f 90/2/3 88/2/3 87/2/3
f 91/2/3 88/2/3 90/2/3
f 92/2/3 90/2/3 89/2/3
f 93/2/3 88/2/3 91/2/3
f 95/2/3 92/2/3 89/2/3
f 95/2/3 93/2/3 92/2/3
f 96/3/3 82/3/3 88/3/3
f 96/2/3 88/2/3 93/2/3
f 96/2/3 93/2/3 95/2/3
f 97/1/3 95/1/3 94/1/3
f 97/3/3 82/3/3 96/3/3
f 97/1/3 96/1/3 95/1/3
f 98/3/3 82/3/3 97/3/3
f 100/1/3 97/1/3 94/1/3
f 101/1/3 97/1/3 100/1/3
f 102/1/3 97/1/3 101/1/3
f 103/1/3 100/1/3 99/1/3
f 103/1/3 101/1/3 100/1/3
f 104/1/3 101/1/3 103/1/3
f 107/2/3 106/2/3 105/2/3
f 108/2/3 106/2/3 107/2/3
f 111/2/3 110/2/3 109/2/3
f 112/2/3 110/2/3 111/2/3
f 115/2/3 114/2/3 113/2/3
f 116/2/3 114/2/3 115/2/3
f 117/2/4 118/2/4 119/2/4
f 119/2/4 118/2/4 120/2/4
f 121/2/4 122/2/4 123/2/4
f 123/2/4 122/2/4 124/2/4
f 127/2/4 128/2/4 129/2/4
f 129/2/4 128/2/4 130/2/4
f 125/3/4 126/3/4 131/3/4
f 131/3/4 126/3/4 132/3/4
f 133/3/4 134/3/4 136/3/4
f 135/4/4 136/4/4 137/4/4
f 136/3/4 134/3/4 138/3/4
f 137/4/4 136/4/4 138/4/4
f 138/3/4 134/3/4 140/3/4
f 139/2/4 140/2/4 142/2/4
f 142/2/4 140/2/4 143/2/4
f 140/3/4 134/3/4 144/3/4
f 144/3/4 134/3/4 145/3/4
f 141/2/4 142/2/4 146/2/4
f 143/2/4 140/2/4 147/2/4
f 141/2/4 146/2/4 149/2/4
f 146/2/4 147/2/4 149/2/4
f 147/2/4 140/2/4 150/2/4
f 140/3/4 144/3/4 150/3/4
f 149/2/4 147/2/4 150/2/4
f 150/3/4 144/3/4 151/3/4
f 145/3/4 134/3/4 152/3/4
f 148/1/4 149/1/4 153/1/4
f 151/3/4 152/3/4 153/3/4
f 150/3/4 151/3/4 153/3/4
f 149/1/4 150/1/4 153/1/4
f 152/3/4 134/3/4 154/3/4
f 153/3/4 152/3/4 154/3/4
f 148/1/4 153/1/4 156/1/4
f 156/1/4 153/1/4 157/1/4
f 157/1/4 153/1/4 158/1/4
f 155/1/4 156/1/4 159/1/4
f 156/1/4 157/1/4 159/1/4
f 159/1/4 157/1/4 160/1/4
f 163/1/5 162/1/5 161/1/5
f 164/1/5 162/1/5 163/1/5
f 167/1/5 166/1/5 165/1/5
f 168/1/5 166/1/5 167/1/5
f 171/2/5 170/2/5 169/2/5
f 172/2/5 170/2/5 171/2/5
f 177/4/5 174/4/5 173/4/5
f 178/4/5 174/4/5 177/4/5
f 179/2/5 176/2/5 175/2/5
f 180/2/5 176/2/5 179/2/5
f 185/2/5 182/2/5 181/2/5
f 186/2/5 182/2/5 185/2/5
f 187/2/5 184/2/5 183/2/5
f 188/2/5 184/2/5 187/2/5
f 191/2/5 190/2/5 189/2/5
f 192/2/5 190/2/5 191/2/5
f 193/2/5 191/2/5 189/2/5
f 195/2/5 193/2/5 189/2/5
f 195/2/5 194/2/5 193/2/5
f 196/2/5 194/2/5 195/2/5
f 201/3/5 198/3/5 197/3/5
f 202/3/5 198/3/5 201/3/5
f 203/3/5 200/3/5 199/3/5
f 204/3/5 200/3/5 203/3/5
f 207/3/5 206/3/5 205/3/5
f 208/3/5 206/3/5 207/3/5
f 209/2/6 210/2/6 211/2/6
f 211/2/6 210/2/6 212/2/6
f 209/2/6 211/2/6 213/2/6
f 209/2/6 213/2/6 215/2/6
f 213/2/6 214/2/6 215/2/6
f 215/2/6 214/2/6 216/2/6
f 219/2/6 220/2/6 223/2/6
f 223/2/6 220/2/6 224/2/6
f 221/2/6 222/2/6 225/2/6
f 225/2/6 222/2/6 226/2/6
f 217/1/6 218/1/6 227/1/6
f 227/1/6 218/1/6 228/1/6
f 229/1/6 230/1/6 231/1/6
f 231/1/6 230/1/6 232/1/6
f 233/3/6 234/3/6 235/3/6
f 235/3/6 234/3/6 236/3/6
f 237/3/6 238/3/6 239/3/6
f 239/3/6 238/3/6 240/3/6
