# MagicaVoxel @ Ephtracy

# group
g Gun-3

# material
mtllib Gun-3.mtl
usemtl palette

# normals
vn -1 0 0
vn 1 0 0
vn 0 0 1
vn 0 0 -1
vn 0 -1 0
vn 0 1 0

# texcoords
vt 0.947266 0.5
vt 0.970703 0.5
vt 0.982422 0.5

# verts
v -29.5 13 1.5
v -29.5 13 -1.5
v -29.5 16 1.5
v -29.5 16 -1.5
v -9.5 12 1.5
v -9.5 12 -1.5
v -9.5 13 1.5
v -9.5 13 -1.5
v -8.5 11 0.5
v -8.5 11 -0.5
v -8.5 12 0.5
v -8.5 12 -0.5
v -5.5 10 1.5
v -5.5 10 -1.5
v -5.5 11 0.5
v -5.5 11 -0.5
v -5.5 12 1.5
v -5.5 12 0.5
v -5.5 12 -0.5
v -5.5 12 -1.5
v -1.5 9 1.5
v -1.5 9 -1.5
v -1.5 10 1.5
v -1.5 10 -1.5
v -0.5 0 1.5
v -0.5 0 -1.5
v -0.5 9 1.5
v -0.5 9 -1.5
v -0.5 16 1.5
v -0.5 16 -1.5
v -0.5 18 0.5
v -0.5 18 -0.5
v -0.5 19 1.5
v -0.5 19 0.5
v -0.5 19 -0.5
v -0.5 19 -1.5
v 6.5 8 1.5
v 6.5 8 -1.5
v 6.5 9 1.5
v 6.5 9 -1.5
v 9.5 9 0.5
v 9.5 9 -0.5
v 9.5 11 0.5
v 9.5 11 -0.5
v 11.5 6 1.5
v 11.5 6 -1.5
v 11.5 8 1.5
v 11.5 8 -1.5
v 11.5 9 1.5
v 11.5 9 0.5
v 11.5 9 -0.5
v 11.5 9 -1.5
v 11.5 11 1.5
v 11.5 11 0.5
v 11.5 11 -0.5
v 11.5 11 -1.5
v 12.5 3 1.5
v 12.5 3 -1.5
v 12.5 6 1.5
v 12.5 6 -1.5
v 19.5 8 1.5
v 19.5 8 -1.5
v 19.5 9 0.5
v 19.5 9 -0.5
v 19.5 10 1.5
v 19.5 10 0.5
v 19.5 10 -0.5
v 19.5 10 -1.5
v 21.5 6 1.5
v 21.5 6 -1.5
v 21.5 8 1.5
v 21.5 8 -1.5
v 23.5 4 1.5
v 23.5 4 -1.5
v 23.5 6 1.5
v 23.5 6 -1.5
v 3.5 18 1.5
v 3.5 18 0.5
v 3.5 18 -0.5
v 3.5 18 -1.5
v 3.5 19 1.5
v 3.5 19 0.5
v 3.5 19 -0.5
v 3.5 19 -1.5
v 5.5 0 1.5
v 5.5 0 -1.5
v 5.5 9 1.5
v 5.5 9 -1.5
v 5.5 16 1.5
v 5.5 16 -1.5
v 5.5 18 1.5
v 5.5 18 -1.5
v 6.5 9 1.5
v 6.5 9 -1.5
v 6.5 11 1.5
v 6.5 11 -1.5
v 14.5 6 1.5
v 14.5 6 -1.5
v 14.5 8 1.5
v 14.5 8 -1.5
v 15.5 3 1.5
v 15.5 3 -1.5
v 15.5 6 1.5
v 15.5 6 -1.5
v 15.5 8 1.5
v 15.5 8 -1.5
v 15.5 9 0.5
v 15.5 9 -0.5
v 15.5 10 1.5
v 15.5 10 0.5
v 15.5 10 -0.5
v 15.5 10 -1.5
v 15.5 14 1.5
v 15.5 14 -1.5
v 15.5 16 1.5
v 15.5 16 -1.5
v 29.5 4 1.5
v 29.5 4 -1.5
v 29.5 14 1.5
v 29.5 14 -1.5
v -29.5 13 1.5
v -29.5 16 1.5
v -9.5 12 1.5
v -9.5 13 1.5
v -5.5 10 1.5
v -5.5 12 1.5
v -1.5 9 1.5
v -1.5 10 1.5
v -0.5 0 1.5
v -0.5 9 1.5
v -0.5 16 1.5
v -0.5 19 1.5
v 3.5 18 1.5
v 3.5 19 1.5
v 5.5 0 1.5
v 5.5 9 1.5
v 5.5 16 1.5
v 5.5 18 1.5
v 6.5 8 1.5
v 6.5 9 1.5
v 6.5 11 1.5
v 11.5 6 1.5
v 11.5 8 1.5
v 11.5 9 1.5
v 11.5 11 1.5
v 12.5 3 1.5
v 12.5 6 1.5
v 14.5 6 1.5
v 14.5 8 1.5
v 15.5 3 1.5
v 15.5 6 1.5
v 15.5 8 1.5
v 15.5 10 1.5
v 15.5 13 1.5
v 15.5 14 1.5
v 15.5 16 1.5
v 19.5 8 1.5
v 19.5 10 1.5
v 21.5 6 1.5
v 21.5 8 1.5
v 23.5 4 1.5
v 23.5 6 1.5
v 29.5 4 1.5
v 29.5 14 1.5
v -8.5 11 0.5
v -8.5 12 0.5
v -5.5 11 0.5
v -5.5 12 0.5
v 9.5 9 0.5
v 9.5 11 0.5
v 11.5 9 0.5
v 11.5 11 0.5
v 15.5 9 0.5
v 15.5 10 0.5
v 19.5 9 0.5
v 19.5 10 0.5
v -0.5 18 -0.5
v -0.5 19 -0.5
v 3.5 18 -0.5
v 3.5 19 -0.5
v -0.5 18 0.5
v -0.5 19 0.5
v 3.5 18 0.5
v 3.5 19 0.5
v -8.5 11 -0.5
v -8.5 12 -0.5
v -5.5 11 -0.5
v -5.5 12 -0.5
v 9.5 9 -0.5
v 9.5 11 -0.5
v 11.5 9 -0.5
v 11.5 11 -0.5
v 15.5 9 -0.5
v 15.5 10 -0.5
v 19.5 9 -0.5
v 19.5 10 -0.5
v -29.5 13 -1.5
v -29.5 16 -1.5
v -9.5 12 -1.5
v -9.5 13 -1.5
v -5.5 10 -1.5
v -5.5 12 -1.5
v -1.5 9 -1.5
v -1.5 10 -1.5
v -0.5 0 -1.5
v -0.5 9 -1.5
v -0.5 16 -1.5
v -0.5 19 -1.5
v 3.5 18 -1.5
v 3.5 19 -1.5
v 5.5 0 -1.5
v 5.5 9 -1.5
v 5.5 16 -1.5
v 5.5 18 -1.5
v 6.5 8 -1.5
v 6.5 9 -1.5
v 6.5 11 -1.5
v 11.5 6 -1.5
v 11.5 8 -1.5
v 11.5 9 -1.5
v 11.5 11 -1.5
v 12.5 3 -1.5
v 12.5 6 -1.5
v 14.5 6 -1.5
v 14.5 8 -1.5
v 15.5 3 -1.5
v 15.5 6 -1.5
v 15.5 8 -1.5
v 15.5 10 -1.5
v 15.5 13 -1.5
v 15.5 14 -1.5
v 15.5 16 -1.5
v 19.5 8 -1.5
v 19.5 10 -1.5
v 21.5 6 -1.5
v 21.5 8 -1.5
v 23.5 4 -1.5
v 23.5 6 -1.5
v 29.5 4 -1.5
v 29.5 14 -1.5
v -0.5 0 1.5
v 5.5 0 1.5
v -0.5 0 -1.5
v 5.5 0 -1.5
v 12.5 3 1.5
v 15.5 3 1.5
v 12.5 3 -1.5
v 15.5 3 -1.5
v 23.5 4 1.5
v 29.5 4 1.5
v 23.5 4 -1.5
v 29.5 4 -1.5
v 11.5 6 1.5
v 12.5 6 1.5
v 21.5 6 1.5
v 23.5 6 1.5
v 11.5 6 -1.5
v 12.5 6 -1.5
v 21.5 6 -1.5
v 23.5 6 -1.5
v 6.5 8 1.5
v 11.5 8 1.5
v 14.5 8 1.5
v 15.5 8 1.5
v 19.5 8 1.5
v 21.5 8 1.5
v 6.5 8 -1.5
v 11.5 8 -1.5
v 14.5 8 -1.5
v 15.5 8 -1.5
v 19.5 8 -1.5
v 21.5 8 -1.5
v -1.5 9 1.5
v -0.5 9 1.5
v 5.5 9 1.5
v 6.5 9 1.5
v 15.5 9 0.5
v 19.5 9 0.5
v 15.5 9 -0.5
v 19.5 9 -0.5
v -1.5 9 -1.5
v -0.5 9 -1.5
v 5.5 9 -1.5
v 6.5 9 -1.5
v -5.5 10 1.5
v -1.5 10 1.5
v 15.5 10 1.5
v 19.5 10 1.5
v 15.5 10 0.5
v 19.5 10 0.5
v 15.5 10 -0.5
v 19.5 10 -0.5
v -5.5 10 -1.5
v -1.5 10 -1.5
v 15.5 10 -1.5
v 19.5 10 -1.5
v 6.5 11 1.5
v 11.5 11 1.5
v -8.5 11 0.5
v -5.5 11 0.5
v 9.5 11 0.5
v 11.5 11 0.5
v -8.5 11 -0.5
v -5.5 11 -0.5
v 9.5 11 -0.5
v 11.5 11 -0.5
v 6.5 11 -1.5
v 11.5 11 -1.5
v -9.5 12 1.5
v -5.5 12 1.5
v -8.5 12 0.5
v -5.5 12 0.5
v -8.5 12 -0.5
v -5.5 12 -0.5
v -9.5 12 -1.5
v -5.5 12 -1.5
v -29.5 13 1.5
v -9.5 13 1.5
v -29.5 13 -1.5
v -9.5 13 -1.5
v 14.5 6 1.5
v 15.5 6 1.5
v 14.5 6 -1.5
v 15.5 6 -1.5
v 6.5 9 1.5
v 11.5 9 1.5
v 9.5 9 0.5
v 11.5 9 0.5
v 9.5 9 -0.5
v 11.5 9 -0.5
v 6.5 9 -1.5
v 11.5 9 -1.5
v 15.5 14 1.5
v 29.5 14 1.5
v 15.5 14 -1.5
v 29.5 14 -1.5
v -29.5 16 1.5
v -0.5 16 1.5
v 5.5 16 1.5
v 15.5 16 1.5
v -29.5 16 -1.5
v -0.5 16 -1.5
v 5.5 16 -1.5
v 15.5 16 -1.5
v 3.5 18 1.5
v 5.5 18 1.5
v -0.5 18 0.5
v 3.5 18 0.5
v -0.5 18 -0.5
v 3.5 18 -0.5
v 3.5 18 -1.5
v 5.5 18 -1.5
v -0.5 19 1.5
v 3.5 19 1.5
v -0.5 19 0.5
v 3.5 19 0.5
v -0.5 19 -0.5
v 3.5 19 -0.5
v -0.5 19 -1.5
v 3.5 19 -1.5

# faces
f 3/3/1 2/3/1 1/3/1
f 4/3/1 2/3/1 3/3/1
f 7/2/1 6/2/1 5/2/1
f 8/2/1 6/2/1 7/2/1
f 11/2/1 10/2/1 9/2/1
f 12/2/1 10/2/1 11/2/1
f 15/2/1 14/2/1 13/2/1
f 16/2/1 14/2/1 15/2/1
f 17/2/1 15/2/1 13/2/1
f 18/2/1 15/2/1 17/2/1
f 19/2/1 14/2/1 16/2/1
f 20/2/1 14/2/1 19/2/1
f 23/2/1 22/2/1 21/2/1
f 24/2/1 22/2/1 23/2/1
f 27/1/1 26/1/1 25/1/1
f 28/1/1 26/1/1 27/1/1
f 31/2/1 30/2/1 29/2/1
f 32/2/1 30/2/1 31/2/1
f 33/2/1 31/2/1 29/2/1
f 34/2/1 31/2/1 33/2/1
f 35/2/1 30/2/1 32/2/1
f 36/2/1 30/2/1 35/2/1
f 39/2/1 38/2/1 37/2/1
f 40/2/1 38/2/1 39/2/1
f 43/2/1 42/2/1 41/2/1
f 44/2/1 42/2/1 43/2/1
f 47/2/1 46/2/1 45/2/1
f 48/2/1 46/2/1 47/2/1
f 53/2/1 50/2/1 49/2/1
f 54/2/1 50/2/1 53/2/1
f 55/2/1 52/2/1 51/2/1
f 56/2/1 52/2/1 55/2/1
f 59/2/1 58/2/1 57/2/1
f 60/2/1 58/2/1 59/2/1
f 63/2/1 62/2/1 61/2/1
f 64/2/1 62/2/1 63/2/1
f 65/2/1 63/2/1 61/2/1
f 66/2/1 63/2/1 65/2/1
f 67/2/1 62/2/1 64/2/1
f 68/2/1 62/2/1 67/2/1
f 71/2/1 70/2/1 69/2/1
f 72/2/1 70/2/1 71/2/1
f 75/2/1 74/2/1 73/2/1
f 76/2/1 74/2/1 75/2/1
f 77/2/2 78/2/2 81/2/2
f 81/2/2 78/2/2 82/2/2
f 79/2/2 80/2/2 83/2/2
f 83/2/2 80/2/2 84/2/2
f 85/1/2 86/1/2 87/1/2
f 87/1/2 86/1/2 88/1/2
f 89/2/2 90/2/2 91/2/2
f 91/2/2 90/2/2 92/2/2
f 93/2/2 94/2/2 95/2/2
f 95/2/2 94/2/2 96/2/2
f 97/2/2 98/2/2 99/2/2
f 99/2/2 98/2/2 100/2/2
f 101/2/2 102/2/2 103/2/2
f 103/2/2 102/2/2 104/2/2
f 105/2/2 106/2/2 107/2/2
f 107/2/2 106/2/2 108/2/2
f 105/2/2 107/2/2 109/2/2
f 109/2/2 107/2/2 110/2/2
f 108/2/2 106/2/2 111/2/2
f 111/2/2 106/2/2 112/2/2
f 113/3/2 114/3/2 115/3/2
f 115/3/2 114/3/2 116/3/2
f 117/2/2 118/2/2 119/2/2
f 119/2/2 118/2/2 120/2/2
f 124/3/3 122/3/3 121/3/3
f 126/2/3 124/2/3 123/2/3
f 128/2/3 126/2/3 125/2/3
f 130/2/3 128/2/3 127/2/3
f 131/3/3 122/3/3 124/3/3
f 133/2/3 132/2/3 131/2/3
f 134/2/3 132/2/3 133/2/3
f 135/1/3 130/1/3 129/1/3
f 136/2/3 128/2/3 130/2/3
f 136/1/3 130/1/3 135/1/3
f 137/3/3 131/3/3 124/3/3
f 137/2/3 133/2/3 131/2/3
f 138/2/3 133/2/3 137/2/3
f 140/2/3 128/2/3 136/2/3
f 141/2/3 126/2/3 128/2/3
f 141/2/3 128/2/3 140/2/3
f 143/2/3 140/2/3 139/2/3
f 144/2/3 140/2/3 143/2/3
f 145/2/3 126/2/3 141/2/3
f 147/2/3 144/2/3 143/2/3
f 147/2/3 145/2/3 144/2/3
f 147/2/3 143/2/3 142/2/3
f 148/2/3 145/2/3 147/2/3
f 148/2/3 147/2/3 146/2/3
f 149/2/3 145/2/3 148/2/3
f 150/2/3 148/2/3 146/2/3
f 151/2/3 148/2/3 150/2/3
f 152/2/3 145/2/3 149/2/3
f 153/2/3 145/2/3 152/2/3
f 154/2/3 124/2/3 126/2/3
f 154/2/3 145/2/3 153/2/3
f 154/2/3 126/2/3 145/2/3
f 154/3/3 137/3/3 124/3/3
f 155/3/3 137/3/3 154/3/3
f 156/3/3 137/3/3 155/3/3
f 158/2/3 155/2/3 154/2/3
f 158/2/3 154/2/3 153/2/3
f 160/2/3 158/2/3 157/2/3
f 162/2/3 160/2/3 159/2/3
f 163/2/3 162/2/3 161/2/3
f 164/2/3 155/2/3 158/2/3
f 164/2/3 162/2/3 163/2/3
f 164/2/3 158/2/3 160/2/3
f 164/2/3 160/2/3 162/2/3
f 167/2/3 166/2/3 165/2/3
f 168/2/3 166/2/3 167/2/3
f 171/2/3 170/2/3 169/2/3
f 172/2/3 170/2/3 171/2/3
f 175/2/3 174/2/3 173/2/3
f 176/2/3 174/2/3 175/2/3
f 179/2/3 178/2/3 177/2/3
f 180/2/3 178/2/3 179/2/3
f 181/2/4 182/2/4 183/2/4
f 183/2/4 182/2/4 184/2/4
f 185/2/4 186/2/4 187/2/4
f 187/2/4 186/2/4 188/2/4
f 189/2/4 190/2/4 191/2/4
f 191/2/4 190/2/4 192/2/4
f 193/2/4 194/2/4 195/2/4
f 195/2/4 194/2/4 196/2/4
f 197/3/4 198/3/4 200/3/4
f 199/2/4 200/2/4 202/2/4
f 201/2/4 202/2/4 204/2/4
f 203/2/4 204/2/4 206/2/4
f 200/3/4 198/3/4 207/3/4
f 207/2/4 208/2/4 209/2/4
f 209/2/4 208/2/4 210/2/4
f 205/1/4 206/1/4 211/1/4
f 206/2/4 204/2/4 212/2/4
f 211/1/4 206/1/4 212/1/4
f 200/3/4 207/3/4 213/3/4
f 207/2/4 209/2/4 213/2/4
f 213/2/4 209/2/4 214/2/4
f 212/2/4 204/2/4 216/2/4
f 204/2/4 202/2/4 217/2/4
f 216/2/4 204/2/4 217/2/4
f 215/2/4 216/2/4 219/2/4
f 219/2/4 216/2/4 220/2/4
f 217/2/4 202/2/4 221/2/4
f 219/2/4 220/2/4 223/2/4
f 220/2/4 221/2/4 223/2/4
f 218/2/4 219/2/4 223/2/4
f 223/2/4 221/2/4 224/2/4
f 222/2/4 223/2/4 224/2/4
f 224/2/4 221/2/4 225/2/4
f 222/2/4 224/2/4 226/2/4
f 226/2/4 224/2/4 227/2/4
f 225/2/4 221/2/4 228/2/4
f 228/2/4 221/2/4 229/2/4
f 202/2/4 200/2/4 230/2/4
f 229/2/4 221/2/4 230/2/4
f 221/2/4 202/2/4 230/2/4
f 200/3/4 213/3/4 230/3/4
f 230/3/4 213/3/4 231/3/4
f 231/3/4 213/3/4 232/3/4
f 230/2/4 231/2/4 234/2/4
f 229/2/4 230/2/4 234/2/4
f 233/2/4 234/2/4 236/2/4
f 235/2/4 236/2/4 238/2/4
f 237/2/4 238/2/4 239/2/4
f 234/2/4 231/2/4 240/2/4
f 239/2/4 238/2/4 240/2/4
f 236/2/4 234/2/4 240/2/4
f 238/2/4 236/2/4 240/2/4
f 243/1/5 242/1/5 241/1/5
f 244/1/5 242/1/5 243/1/5
f 247/2/5 246/2/5 245/2/5
f 248/2/5 246/2/5 247/2/5
f 251/2/5 250/2/5 249/2/5
f 252/2/5 250/2/5 251/2/5
f 257/2/5 254/2/5 253/2/5
f 258/2/5 254/2/5 257/2/5
f 259/2/5 256/2/5 255/2/5
f 260/2/5 256/2/5 259/2/5
f 267/2/5 262/2/5 261/2/5
f 268/2/5 262/2/5 267/2/5
f 269/2/5 264/2/5 263/2/5
f 270/2/5 264/2/5 269/2/5
f 271/2/5 266/2/5 265/2/5
f 272/2/5 266/2/5 271/2/5
f 279/2/5 278/2/5 277/2/5
f 280/2/5 278/2/5 279/2/5
f 281/2/5 274/2/5 273/2/5
f 282/2/5 274/2/5 281/2/5
f 283/2/5 276/2/5 275/2/5
f 284/2/5 276/2/5 283/2/5
f 289/2/5 288/2/5 287/2/5
f 290/2/5 288/2/5 289/2/5
f 293/2/5 286/2/5 285/2/5
f 294/2/5 286/2/5 293/2/5
f 295/2/5 292/2/5 291/2/5
f 296/2/5 292/2/5 295/2/5
f 301/2/5 298/2/5 297/2/5
f 302/2/5 298/2/5 301/2/5
f 303/2/5 300/2/5 299/2/5
f 304/2/5 300/2/5 303/2/5
f 305/2/5 301/2/5 297/2/5
f 307/2/5 306/2/5 305/2/5
f 307/2/5 305/2/5 297/2/5
f 308/2/5 306/2/5 307/2/5
f 311/2/5 310/2/5 309/2/5
f 312/2/5 310/2/5 311/2/5
f 313/2/5 311/2/5 309/2/5
f 315/2/5 313/2/5 309/2/5
f 315/2/5 314/2/5 313/2/5
f 316/2/5 314/2/5 315/2/5
f 319/3/5 318/3/5 317/3/5
f 320/3/5 318/3/5 319/3/5
f 321/2/6 322/2/6 323/2/6
f 323/2/6 322/2/6 324/2/6
f 325/2/6 326/2/6 327/2/6
f 327/2/6 326/2/6 328/2/6
f 325/2/6 327/2/6 329/2/6
f 325/2/6 329/2/6 331/2/6
f 329/2/6 330/2/6 331/2/6
f 331/2/6 330/2/6 332/2/6
f 333/2/6 334/2/6 335/2/6
f 335/2/6 334/2/6 336/2/6
f 337/3/6 338/3/6 341/3/6
f 341/3/6 338/3/6 342/3/6
f 339/3/6 340/3/6 343/3/6
f 343/3/6 340/3/6 344/3/6
f 345/2/6 346/2/6 348/2/6
f 347/2/6 348/2/6 349/2/6
f 348/2/6 346/2/6 350/2/6
f 349/2/6 348/2/6 350/2/6
f 350/2/6 346/2/6 351/2/6
f 351/2/6 346/2/6 352/2/6
f 353/2/6 354/2/6 355/2/6
f 355/2/6 354/2/6 356/2/6
f 357/2/6 358/2/6 359/2/6
f 359/2/6 358/2/6 360/2/6
