# MagicaVoxel @ Ephtracy

# group
g Melee

# material
mtllib Melee.mtl
usemtl palette

# normals
vn -1 0 0
vn 1 0 0
vn 0 0 1
vn 0 0 -1
vn 0 -1 0
vn 0 1 0

# texcoords
vt 0.876953 0.5
vt 0.880859 0.5
vt 0.947266 0.5
vt 0.978516 0.5

# verts
v -1.5 4 1.5
v -1.5 4 -1.5
v -1.5 5 1.5
v -1.5 5 -1.5
v -0.5 0 0.5
v -0.5 0 -0.5
v -0.5 4 0.5
v -0.5 4 -0.5
v -0.5 5 1.5
v -0.5 5 -0.5
v -0.5 7 0.5
v -0.5 7 -0.5
v -0.5 9 0.5
v -0.5 9 -0.5
v -0.5 10 0.5
v -0.5 10 -0.5
v -0.5 10 -1.5
v -0.5 11 -0.5
v -0.5 11 -1.5
v -0.5 15 1.5
v -0.5 15 0.5
v -0.5 15 -0.5
v -0.5 16 0.5
v -0.5 16 -0.5
v -0.5 16 -1.5
v -0.5 17 -0.5
v -0.5 17 -1.5
v 0.5 0 0.5
v 0.5 0 -0.5
v 0.5 4 0.5
v 0.5 4 -0.5
v 0.5 5 1.5
v 0.5 5 -0.5
v 0.5 7 0.5
v 0.5 7 -0.5
v 0.5 9 0.5
v 0.5 9 -0.5
v 0.5 10 0.5
v 0.5 10 -0.5
v 0.5 10 -1.5
v 0.5 11 -0.5
v 0.5 11 -1.5
v 0.5 15 1.5
v 0.5 15 0.5
v 0.5 15 -0.5
v 0.5 16 0.5
v 0.5 16 -0.5
v 0.5 16 -1.5
v 0.5 17 -0.5
v 0.5 17 -1.5
v 1.5 4 1.5
v 1.5 4 -1.5
v 1.5 5 1.5
v 1.5 5 -1.5
v -1.5 4 1.5
v -1.5 5 1.5
v -0.5 5 1.5
v -0.5 15 1.5
v 0.5 5 1.5
v 0.5 15 1.5
v 1.5 4 1.5
v 1.5 5 1.5
v -0.5 0 0.5
v -0.5 4 0.5
v -0.5 15 0.5
v -0.5 16 0.5
v 0.5 0 0.5
v 0.5 4 0.5
v 0.5 15 0.5
v 0.5 16 0.5
v -0.5 16 -0.5
v -0.5 17 -0.5
v 0.5 16 -0.5
v 0.5 17 -0.5
v -0.5 7 0.5
v -0.5 9 0.5
v 0.5 7 0.5
v 0.5 9 0.5
v -0.5 0 -0.5
v -0.5 4 -0.5
v -0.5 5 -0.5
v -0.5 7 -0.5
v -0.5 9 -0.5
v -0.5 10 -0.5
v 0.5 0 -0.5
v 0.5 4 -0.5
v 0.5 5 -0.5
v 0.5 7 -0.5
v 0.5 9 -0.5
v 0.5 10 -0.5
v -1.5 4 -1.5
v -1.5 5 -1.5
v -0.5 10 -1.5
v -0.5 11 -1.5
v -0.5 16 -1.5
v -0.5 17 -1.5
v 0.5 10 -1.5
v 0.5 11 -1.5
v 0.5 16 -1.5
v 0.5 17 -1.5
v 1.5 4 -1.5
v 1.5 5 -1.5
v -0.5 0 0.5
v 0.5 0 0.5
v -0.5 0 -0.5
v 0.5 0 -0.5
v -1.5 4 1.5
v 1.5 4 1.5
v -0.5 4 0.5
v 0.5 4 0.5
v -0.5 4 -0.5
v 0.5 4 -0.5
v -1.5 4 -1.5
v 1.5 4 -1.5
v -0.5 9 0.5
v 0.5 9 0.5
v -0.5 9 -0.5
v 0.5 9 -0.5
v -0.5 10 -0.5
v 0.5 10 -0.5
v -0.5 10 -1.5
v 0.5 10 -1.5
v -1.5 5 1.5
v -0.5 5 1.5
v 0.5 5 1.5
v 1.5 5 1.5
v -0.5 5 -0.5
v 0.5 5 -0.5
v -1.5 5 -1.5
v 1.5 5 -1.5
v -0.5 7 0.5
v 0.5 7 0.5
v -0.5 7 -0.5
v 0.5 7 -0.5
v -0.5 15 1.5
v 0.5 15 1.5
v -0.5 15 0.5
v 0.5 15 0.5
v -0.5 16 0.5
v 0.5 16 0.5
v -0.5 16 -0.5
v 0.5 16 -0.5
v -0.5 17 -0.5
v 0.5 17 -0.5
v -0.5 17 -1.5
v 0.5 17 -1.5

# faces
f 3/2/1 2/2/1 1/2/1
f 4/2/1 2/2/1 3/2/1
f 7/1/1 6/1/1 5/1/1
f 8/1/1 6/1/1 7/1/1
f 11/4/1 10/4/1 9/4/1
f 12/4/1 10/4/1 11/4/1
f 13/4/1 11/4/1 9/4/1
f 15/4/1 13/4/1 9/4/1
f 15/4/1 14/4/1 13/4/1
f 16/4/1 14/4/1 15/4/1
f 18/3/1 16/3/1 15/3/1
f 18/4/1 17/4/1 16/4/1
f 19/4/1 17/4/1 18/4/1
f 20/4/1 15/4/1 9/4/1
f 21/3/1 18/3/1 15/3/1
f 21/4/1 15/4/1 20/4/1
f 21/3/1 19/3/1 18/3/1
f 22/3/1 19/3/1 21/3/1
f 23/4/1 22/4/1 21/4/1
f 24/3/1 19/3/1 22/3/1
f 24/4/1 22/4/1 23/4/1
f 25/3/1 19/3/1 24/3/1
f 26/4/1 25/4/1 24/4/1
f 27/4/1 25/4/1 26/4/1
f 28/1/2 29/1/2 30/1/2
f 30/1/2 29/1/2 31/1/2
f 32/4/2 33/4/2 34/4/2
f 34/4/2 33/4/2 35/4/2
f 32/4/2 34/4/2 36/4/2
f 32/4/2 36/4/2 38/4/2
f 36/4/2 37/4/2 38/4/2
f 38/4/2 37/4/2 39/4/2
f 38/3/2 39/3/2 41/3/2
f 39/4/2 40/4/2 41/4/2
f 41/4/2 40/4/2 42/4/2
f 32/4/2 38/4/2 43/4/2
f 38/3/2 41/3/2 44/3/2
f 43/4/2 38/4/2 44/4/2
f 41/3/2 42/3/2 44/3/2
f 44/3/2 42/3/2 45/3/2
f 44/4/2 45/4/2 46/4/2
f 45/3/2 42/3/2 47/3/2
f 46/4/2 45/4/2 47/4/2
f 47/3/2 42/3/2 48/3/2
f 47/4/2 48/4/2 49/4/2
f 49/4/2 48/4/2 50/4/2
f 51/2/2 52/2/2 53/2/2
f 53/2/2 52/2/2 54/2/2
f 57/2/3 56/2/3 55/2/3
f 59/2/3 57/2/3 55/2/3
f 59/4/3 58/4/3 57/4/3
f 60/4/3 58/4/3 59/4/3
f 61/2/3 59/2/3 55/2/3
f 62/2/3 59/2/3 61/2/3
f 67/1/3 64/1/3 63/1/3
f 68/1/3 64/1/3 67/1/3
f 69/4/3 66/4/3 65/4/3
f 70/4/3 66/4/3 69/4/3
f 73/4/3 72/4/3 71/4/3
f 74/4/3 72/4/3 73/4/3
f 75/4/4 76/4/4 77/4/4
f 77/4/4 76/4/4 78/4/4
f 79/1/4 80/1/4 85/1/4
f 85/1/4 80/1/4 86/1/4
f 81/4/4 82/4/4 87/4/4
f 87/4/4 82/4/4 88/4/4
f 83/4/4 84/4/4 89/4/4
f 89/4/4 84/4/4 90/4/4
f 93/4/4 94/4/4 97/4/4
f 94/3/4 95/3/4 98/3/4
f 97/4/4 94/4/4 98/4/4
f 95/4/4 96/4/4 99/4/4
f 98/3/4 95/3/4 99/3/4
f 99/4/4 96/4/4 100/4/4
f 91/2/4 92/2/4 101/2/4
f 101/2/4 92/2/4 102/2/4
f 105/1/5 104/1/5 103/1/5
f 106/1/5 104/1/5 105/1/5
f 109/2/5 108/2/5 107/2/5
f 110/2/5 108/2/5 109/2/5
f 111/2/5 109/2/5 107/2/5
f 112/2/5 108/2/5 110/2/5
f 113/2/5 111/2/5 107/2/5
f 113/2/5 112/2/5 111/2/5
f 114/2/5 108/2/5 112/2/5
f 114/2/5 112/2/5 113/2/5
f 117/4/5 116/4/5 115/4/5
f 118/4/5 116/4/5 117/4/5
f 121/4/5 120/4/5 119/4/5
f 122/4/5 120/4/5 121/4/5
f 123/2/6 124/2/6 127/2/6
f 125/2/6 126/2/6 128/2/6
f 123/2/6 127/2/6 129/2/6
f 127/2/6 128/2/6 129/2/6
f 128/2/6 126/2/6 130/2/6
f 129/2/6 128/2/6 130/2/6
f 131/4/6 132/4/6 133/4/6
f 133/4/6 132/4/6 134/4/6
f 135/4/6 136/4/6 137/4/6
f 137/4/6 136/4/6 138/4/6
f 139/4/6 140/4/6 141/4/6
f 141/4/6 140/4/6 142/4/6
f 143/4/6 144/4/6 145/4/6
f 145/4/6 144/4/6 146/4/6
