# MagicaVoxel @ Ephtracy

# group
g Rocks-3

# material
mtllib Rocks-3.mtl
usemtl palette

# normals
vn -1 0 0
vn 1 0 0
vn 0 0 1
vn 0 0 -1
vn 0 -1 0
vn 0 1 0

# texcoords
vt 0.947266 0.5
vt 0.970703 0.5
vt 0.978516 0.5

# verts
v -4 0 4
v -4 0 2
v -4 2 4
v -4 2 2
v -2 0 1
v -2 0 -3
v -2 1 1
v -2 1 -3
v -1 0 3
v -1 0 1
v -1 1 3
v -1 1 1
v -1 1 -1
v -1 2 1
v -1 2 -1
v 0 1 2
v 0 1 1
v 0 2 1
v 0 2 -0
v 0 3 2
v 0 3 -0
v 1 0 -3
v 1 0 -4
v 1 1 -2
v 1 1 -3
v 1 2 -2
v 1 2 -4
v -2 0 4
v -2 0 2
v -2 2 4
v -2 2 2
v 1 1 -0
v 1 1 -1
v 1 2 -0
v 1 2 -1
v 2 0 -1
v 2 0 -2
v 2 1 2
v 2 1 -0
v 2 1 -1
v 2 1 -2
v 2 3 2
v 2 3 -0
v 3 0 3
v 3 0 -1
v 3 0 -2
v 3 0 -4
v 3 1 3
v 3 1 -1
v 3 2 -2
v 3 2 -4
v -4 0 4
v -4 2 4
v -2 0 4
v -2 2 4
v -1 0 3
v -1 1 3
v 3 0 3
v 3 1 3
v 0 1 2
v 0 3 2
v 2 1 2
v 2 3 2
v -2 0 1
v -2 1 1
v -1 0 1
v -1 1 1
v -1 2 1
v 0 1 1
v 0 2 1
v 1 1 -2
v 1 2 -2
v 2 0 -2
v 2 1 -2
v 3 0 -2
v 3 2 -2
v -4 0 2
v -4 2 2
v -2 0 2
v -2 2 2
v 0 2 -0
v 0 3 -0
v 1 1 -0
v 1 2 -0
v 2 1 -0
v 2 3 -0
v -1 1 -1
v -1 2 -1
v 1 1 -1
v 1 2 -1
v 2 0 -1
v 2 1 -1
v 3 0 -1
v 3 1 -1
v -2 0 -3
v -2 1 -3
v 1 0 -3
v 1 1 -3
v 1 0 -4
v 1 2 -4
v 3 0 -4
v 3 2 -4
v -4 0 4
v -2 0 4
v -1 0 3
v 3 0 3
v -4 0 2
v -2 0 2
v -2 0 1
v -1 0 1
v -1 0 -1
v 2 0 -1
v 3 0 -1
v 1 0 -2
v 2 0 -2
v 3 0 -2
v -2 0 -3
v 1 0 -3
v 1 0 -4
v 3 0 -4
v -1 1 3
v 3 1 3
v 0 1 2
v 2 1 2
v -2 1 1
v -1 1 1
v 0 1 1
v 1 1 -0
v 2 1 -0
v -1 1 -1
v 1 1 -1
v 2 1 -1
v 3 1 -1
v 1 1 -2
v 2 1 -2
v -2 1 -3
v 1 1 -3
v -4 2 4
v -2 2 4
v -4 2 2
v -2 2 2
v -1 2 1
v 0 2 1
v 0 2 -0
v 1 2 -0
v -1 2 -1
v 1 2 -1
v 1 2 -2
v 3 2 -2
v 1 2 -4
v 3 2 -4
v 0 3 2
v 2 3 2
v 0 3 -0
v 2 3 -0

# faces
f 3/2/1 2/2/1 1/2/1
f 4/2/1 2/2/1 3/2/1
f 7/3/1 6/3/1 5/3/1
f 8/3/1 6/3/1 7/3/1
f 11/2/1 10/2/1 9/2/1
f 12/2/1 10/2/1 11/2/1
f 14/3/1 13/3/1 12/3/1
f 15/3/1 13/3/1 14/3/1
f 18/1/1 17/1/1 16/1/1
f 20/1/1 18/1/1 16/1/1
f 20/1/1 19/1/1 18/1/1
f 21/1/1 19/1/1 20/1/1
f 25/1/1 23/1/1 22/1/1
f 26/1/1 25/1/1 24/1/1
f 27/1/1 23/1/1 25/1/1
f 27/1/1 25/1/1 26/1/1
f 28/2/2 29/2/2 30/2/2
f 30/2/2 29/2/2 31/2/2
f 32/3/2 33/3/2 34/3/2
f 34/3/2 33/3/2 35/3/2
f 36/3/2 37/3/2 40/3/2
f 40/3/2 37/3/2 41/3/2
f 38/1/2 39/1/2 42/1/2
f 42/1/2 39/1/2 43/1/2
f 44/2/2 45/2/2 48/2/2
f 48/2/2 45/2/2 49/2/2
f 46/1/2 47/1/2 50/1/2
f 50/1/2 47/1/2 51/1/2
f 54/2/3 53/2/3 52/2/3
f 55/2/3 53/2/3 54/2/3
f 58/2/3 57/2/3 56/2/3
f 59/2/3 57/2/3 58/2/3
f 62/1/3 61/1/3 60/1/3
f 63/1/3 61/1/3 62/1/3
f 66/3/3 65/3/3 64/3/3
f 67/3/3 65/3/3 66/3/3
f 69/3/3 68/3/3 67/3/3
f 70/3/3 68/3/3 69/3/3
f 74/1/3 72/1/3 71/1/3
f 75/1/3 74/1/3 73/1/3
f 76/1/3 72/1/3 74/1/3
f 76/1/3 74/1/3 75/1/3
f 77/2/4 78/2/4 79/2/4
f 79/2/4 78/2/4 80/2/4
f 81/1/4 82/1/4 84/1/4
f 83/1/4 84/1/4 85/1/4
f 84/1/4 82/1/4 86/1/4
f 85/1/4 84/1/4 86/1/4
f 87/3/4 88/3/4 89/3/4
f 89/3/4 88/3/4 90/3/4
f 91/2/4 92/2/4 93/2/4
f 93/2/4 92/2/4 94/2/4
f 95/3/4 96/3/4 97/3/4
f 97/3/4 96/3/4 98/3/4
f 99/1/4 100/1/4 101/1/4
f 101/1/4 100/1/4 102/1/4
f 107/2/5 104/2/5 103/2/5
f 108/2/5 104/2/5 107/2/5
f 110/2/5 106/2/5 105/2/5
f 111/2/5 106/2/5 110/2/5
f 111/3/5 110/3/5 109/3/5
f 112/2/5 106/2/5 111/2/5
f 113/2/5 106/2/5 112/2/5
f 114/3/5 112/3/5 111/3/5
f 115/3/5 112/3/5 114/3/5
f 117/3/5 111/3/5 109/3/5
f 117/3/5 114/3/5 111/3/5
f 118/1/5 116/1/5 115/1/5
f 118/3/5 114/3/5 117/3/5
f 118/1/5 115/1/5 114/1/5
f 119/1/5 116/1/5 118/1/5
f 120/1/5 116/1/5 119/1/5
f 121/2/6 122/2/6 123/2/6
f 123/2/6 122/2/6 124/2/6
f 121/2/6 123/2/6 126/2/6
f 126/2/6 123/2/6 127/2/6
f 124/2/6 122/2/6 129/2/6
f 125/3/6 126/3/6 130/3/6
f 128/2/6 129/2/6 131/2/6
f 129/2/6 122/2/6 132/2/6
f 131/2/6 129/2/6 132/2/6
f 132/2/6 122/2/6 133/2/6
f 130/3/6 131/3/6 134/3/6
f 131/3/6 132/3/6 134/3/6
f 134/3/6 132/3/6 135/3/6
f 125/3/6 130/3/6 136/3/6
f 130/3/6 134/3/6 136/3/6
f 136/3/6 134/3/6 137/3/6
f 138/2/6 139/2/6 140/2/6
f 140/2/6 139/2/6 141/2/6
f 142/3/6 143/3/6 144/3/6
f 142/3/6 144/3/6 146/3/6
f 144/3/6 145/3/6 146/3/6
f 146/3/6 145/3/6 147/3/6
f 148/1/6 149/1/6 150/1/6
f 150/1/6 149/1/6 151/1/6
f 152/1/6 153/1/6 154/1/6
f 154/1/6 153/1/6 155/1/6
