# MagicaVoxel @ Ephtracy

# group
g Rocks-0

# material
mtllib Rocks-0.mtl
usemtl palette

# normals
vn -1 0 0
vn 1 0 0
vn 0 0 1
vn 0 0 -1
vn 0 -1 0
vn 0 1 0

# texcoords
vt 0.947266 0.5
vt 0.970703 0.5
vt 0.978516 0.5

# verts
v -3 0 1
v -3 0 -3
v -3 3 1
v -3 3 -3
v -2 0 4
v -2 0 2
v -2 2 4
v -2 2 2
v -1 0 2
v -1 0 1
v -1 2 3
v -1 2 2
v -1 3 1
v -1 3 -1
v -1 4 3
v -1 4 -1
v 0 0 4
v 0 0 3
v 0 2 4
v 0 2 3
v 1 0 -1
v 1 0 -3
v 1 3 -1
v 1 3 -3
v 3 0 3
v 3 0 2
v 3 0 -0
v 3 0 -1
v 3 2 2
v 3 2 -0
v 3 4 3
v 3 4 -1
v 4 0 2
v 4 0 -0
v 4 2 2
v 4 2 -0
v -2 0 4
v -2 2 4
v 0 0 4
v 0 2 4
v -1 2 3
v -1 4 3
v 0 0 3
v 0 2 3
v 3 0 3
v 3 4 3
v 3 0 2
v 3 2 2
v 4 0 2
v 4 2 2
v -3 0 1
v -3 3 1
v -1 0 1
v -1 3 1
v -2 0 2
v -2 2 2
v -1 0 2
v -1 2 2
v 3 0 -0
v 3 2 -0
v 4 0 -0
v 4 2 -0
v -1 3 -1
v -1 4 -1
v 1 0 -1
v 1 3 -1
v 3 0 -1
v 3 4 -1
v -3 0 -3
v -3 3 -3
v 1 0 -3
v 1 3 -3
v -2 0 4
v 0 0 4
v -1 0 3
v 0 0 3
v 3 0 3
v -2 0 2
v -1 0 2
v 3 0 2
v 4 0 2
v -3 0 1
v -1 0 1
v 3 0 -0
v 4 0 -0
v -1 0 -1
v 1 0 -1
v 3 0 -1
v -3 0 -3
v 1 0 -3
v -2 2 4
v 0 2 4
v -1 2 3
v 0 2 3
v -2 2 2
v -1 2 2
v 3 2 2
v 4 2 2
v 3 2 -0
v 4 2 -0
v -3 3 1
v -1 3 1
v -1 3 -1
v 1 3 -1
v -3 3 -3
v 1 3 -3
v -1 4 3
v 3 4 3
v -1 4 -1
v 3 4 -1

# faces
f 3/3/1 2/3/1 1/3/1
f 4/3/1 2/3/1 3/3/1
f 7/1/1 6/1/1 5/1/1
f 8/1/1 6/1/1 7/1/1
f 12/2/1 10/2/1 9/2/1
f 13/2/1 10/2/1 12/2/1
f 13/2/1 12/2/1 11/2/1
f 15/2/1 13/2/1 11/2/1
f 15/2/1 14/2/1 13/2/1
f 16/2/1 14/2/1 15/2/1
f 17/1/2 18/1/2 19/1/2
f 19/1/2 18/1/2 20/1/2
f 21/3/2 22/3/2 23/3/2
f 23/3/2 22/3/2 24/3/2
f 25/2/2 26/2/2 29/2/2
f 27/2/2 28/2/2 30/2/2
f 25/2/2 29/2/2 31/2/2
f 29/2/2 30/2/2 31/2/2
f 30/2/2 28/2/2 32/2/2
f 31/2/2 30/2/2 32/2/2
f 33/3/2 34/3/2 35/3/2
f 35/3/2 34/3/2 36/3/2
f 39/1/3 38/1/3 37/1/3
f 40/1/3 38/1/3 39/1/3
f 44/2/3 42/2/3 41/2/3
f 45/2/3 44/2/3 43/2/3
f 46/2/3 42/2/3 44/2/3
f 46/2/3 44/2/3 45/2/3
f 49/3/3 48/3/3 47/3/3
f 50/3/3 48/3/3 49/3/3
f 53/3/3 52/3/3 51/3/3
f 54/3/3 52/3/3 53/3/3
f 55/1/4 56/1/4 57/1/4
f 57/1/4 56/1/4 58/1/4
f 59/3/4 60/3/4 61/3/4
f 61/3/4 60/3/4 62/3/4
f 63/2/4 64/2/4 66/2/4
f 65/2/4 66/2/4 67/2/4
f 66/2/4 64/2/4 68/2/4
f 67/2/4 66/2/4 68/2/4
f 69/3/4 70/3/4 71/3/4
f 71/3/4 70/3/4 72/3/4
f 75/1/5 74/1/5 73/1/5
f 76/1/5 74/1/5 75/1/5
f 78/1/5 75/1/5 73/1/5
f 79/2/5 77/2/5 76/2/5
f 79/1/5 75/1/5 78/1/5
f 79/2/5 76/2/5 75/2/5
f 80/2/5 77/2/5 79/2/5
f 83/2/5 80/2/5 79/2/5
f 84/3/5 81/3/5 80/3/5
f 84/2/5 80/2/5 83/2/5
f 85/3/5 81/3/5 84/3/5
f 86/3/5 83/3/5 82/3/5
f 86/2/5 84/2/5 83/2/5
f 87/2/5 84/2/5 86/2/5
f 88/2/5 84/2/5 87/2/5
f 89/3/5 86/3/5 82/3/5
f 89/3/5 87/3/5 86/3/5
f 90/3/5 87/3/5 89/3/5
f 91/1/6 92/1/6 93/1/6
f 93/1/6 92/1/6 94/1/6
f 91/1/6 93/1/6 95/1/6
f 95/1/6 93/1/6 96/1/6
f 97/3/6 98/3/6 99/3/6
f 99/3/6 98/3/6 100/3/6
f 101/3/6 102/3/6 103/3/6
f 101/3/6 103/3/6 105/3/6
f 103/3/6 104/3/6 105/3/6
f 105/3/6 104/3/6 106/3/6
f 107/2/6 108/2/6 109/2/6
f 109/2/6 108/2/6 110/2/6
