# MagicaVoxel @ Ephtracy

# group
g TommyGun

# material
mtllib TommyGun.mtl
usemtl palette

# normals
vn -1 0 0
vn 1 0 0
vn 0 0 1
vn 0 0 -1
vn 0 -1 0
vn 0 1 0

# texcoords
vt 0.947266 0.5
vt 0.966797 0.5
vt 0.982422 0.5
vt 0.994141 0.5

# verts
v -29 3 1
v -29 3 -1
v -29 10 1
v -29 10 -1
v -17 8 2
v -17 8 1
v -17 8 -1
v -17 8 -2
v -17 10 1
v -17 10 -1
v -17 12 2
v -17 12 -2
v -15 12 1
v -15 12 -1
v -15 13 1
v -15 13 -1
v -11 2 1
v -11 2 -1
v -11 3 1
v -11 3 -1
v -4 3 1
v -4 3 -1
v -4 8 1
v -4 8 -1
v -3 0 3
v -3 0 -3
v -3 1 4
v -3 1 3
v -3 1 -3
v -3 1 -4
v -3 2 1
v -3 2 -1
v -3 7 4
v -3 7 3
v -3 7 -3
v -3 7 -4
v -3 8 3
v -3 8 2
v -3 8 1
v -3 8 -1
v -3 8 -2
v -3 8 -3
v -10 3 1
v -10 3 -1
v -10 4 -0
v -10 4 -1
v -10 8 1
v -10 8 -0
v -7 4 -0
v -7 4 -1
v -7 8 -0
v -7 8 -1
v 3 0 3
v 3 0 -3
v 3 1 4
v 3 1 3
v 3 1 -3
v 3 1 -4
v 3 7 4
v 3 7 3
v 3 7 -3
v 3 7 -4
v 3 8 3
v 3 8 2
v 3 8 -2
v 3 8 -3
v 17 8 2
v 17 8 -2
v 17 11 1
v 17 11 -1
v 17 12 2
v 17 12 1
v 17 12 -1
v 17 12 -2
v 29 11 1
v 29 11 -1
v 29 13 1
v 29 13 -1
v -3 1 4
v -3 7 4
v 3 1 4
v 3 7 4
v -3 0 3
v -3 1 3
v -3 7 3
v -3 8 3
v 3 0 3
v 3 1 3
v 3 7 3
v 3 8 3
v -17 8 2
v -17 12 2
v -3 8 2
v 3 8 2
v 3 12 2
v 17 8 2
v 17 12 2
v -29 3 1
v -29 10 1
v -17 8 1
v -17 10 1
v -15 12 1
v -15 13 1
v -11 2 1
v -11 3 1
v -11 8 1
v -10 3 1
v -10 8 1
v -4 3 1
v -4 8 1
v -3 2 1
v -3 8 1
v 3 12 1
v 17 11 1
v 17 12 1
v 29 11 1
v 29 13 1
v -10 4 -0
v -10 8 -0
v -7 4 -0
v -7 8 -0
v -29 3 -1
v -29 10 -1
v -17 8 -1
v -17 10 -1
v -15 12 -1
v -15 13 -1
v -11 2 -1
v -11 3 -1
v -11 8 -1
v -10 3 -1
v -10 4 -1
v -7 4 -1
v -7 8 -1
v -4 3 -1
v -4 8 -1
v -3 2 -1
v -3 8 -1
v 3 12 -1
v 17 11 -1
v 17 12 -1
v 29 11 -1
v 29 13 -1
v -17 8 -2
v -17 12 -2
v -3 8 -2
v 3 8 -2
v 3 12 -2
v 17 8 -2
v 17 12 -2
v -3 0 -3
v -3 1 -3
v -3 7 -3
v -3 8 -3
v 3 0 -3
v 3 1 -3
v 3 7 -3
v 3 8 -3
v -3 1 -4
v -3 7 -4
v 3 1 -4
v 3 7 -4
v -3 0 3
v 3 0 3
v -3 0 -3
v 3 0 -3
v -3 1 4
v 3 1 4
v -3 1 3
v 3 1 3
v -3 1 -3
v 3 1 -3
v -3 1 -4
v 3 1 -4
v -11 2 1
v -3 2 1
v -11 2 -1
v -3 2 -1
v -29 3 1
v -11 3 1
v -29 3 -1
v -11 3 -1
v -10 4 -0
v -7 4 -0
v -10 4 -1
v -7 4 -1
v -17 8 2
v -3 8 2
v 3 8 2
v 17 8 2
v -17 8 1
v -11 8 1
v -10 8 1
v -4 8 1
v -3 8 1
v -10 8 -0
v -7 8 -0
v -17 8 -1
v -11 8 -1
v -7 8 -1
v -4 8 -1
v -3 8 -1
v -17 8 -2
v -3 8 -2
v 3 8 -2
v 17 8 -2
v 17 11 1
v 29 11 1
v 17 11 -1
v 29 11 -1
v -10 3 1
v -4 3 1
v -10 3 -1
v -4 3 -1
v -3 7 4
v 3 7 4
v -3 7 3
v 3 7 3
v -3 7 -3
v 3 7 -3
v -3 7 -4
v 3 7 -4
v -3 8 3
v 3 8 3
v -3 8 2
v 3 8 2
v -3 8 -2
v 3 8 -2
v -3 8 -3
v 3 8 -3
v -29 10 1
v -17 10 1
v -29 10 -1
v -17 10 -1
v -17 12 2
v 3 12 2
v 17 12 2
v -15 12 1
v 3 12 1
v 17 12 1
v -15 12 -1
v 3 12 -1
v 17 12 -1
v -17 12 -2
v 3 12 -2
v 17 12 -2
v -15 13 1
v 29 13 1
v -15 13 -1
v 29 13 -1

# faces
f 3/4/1 2/4/1 1/4/1
f 4/4/1 2/4/1 3/4/1
f 9/2/1 6/2/1 5/2/1
f 10/2/1 8/2/1 7/2/1
f 11/2/1 9/2/1 5/2/1
f 11/2/1 10/2/1 9/2/1
f 12/2/1 8/2/1 10/2/1
f 12/2/1 10/2/1 11/2/1
f 15/3/1 14/3/1 13/3/1
f 16/3/1 14/3/1 15/3/1
f 19/2/1 18/2/1 17/2/1
f 20/2/1 18/2/1 19/2/1
f 23/2/1 22/2/1 21/2/1
f 24/2/1 22/2/1 23/2/1
f 28/1/1 26/1/1 25/1/1
f 29/1/1 26/1/1 28/1/1
f 31/1/1 28/1/1 27/1/1
f 31/1/1 30/1/1 29/1/1
f 31/1/1 29/1/1 28/1/1
f 32/1/1 30/1/1 31/1/1
f 33/1/1 31/1/1 27/1/1
f 34/1/1 31/1/1 33/1/1
f 35/1/1 30/1/1 32/1/1
f 36/1/1 30/1/1 35/1/1
f 37/1/1 31/1/1 34/1/1
f 38/1/1 31/1/1 37/1/1
f 39/1/1 31/1/1 38/1/1
f 40/1/1 35/1/1 32/1/1
f 41/1/1 35/1/1 40/1/1
f 42/1/1 35/1/1 41/1/1
f 43/2/2 44/2/2 45/2/2
f 45/2/2 44/2/2 46/2/2
f 43/2/2 45/2/2 47/2/2
f 47/2/2 45/2/2 48/2/2
f 49/2/2 50/2/2 51/2/2
f 51/2/2 50/2/2 52/2/2
f 53/1/2 54/1/2 56/1/2
f 56/1/2 54/1/2 57/1/2
f 55/1/2 56/1/2 59/1/2
f 57/1/2 58/1/2 59/1/2
f 56/1/2 57/1/2 59/1/2
f 59/1/2 58/1/2 60/1/2
f 60/1/2 58/1/2 61/1/2
f 61/1/2 58/1/2 62/1/2
f 60/1/2 61/1/2 63/1/2
f 63/1/2 61/1/2 64/1/2
f 64/1/2 61/1/2 65/1/2
f 65/1/2 61/1/2 66/1/2
f 67/4/2 68/4/2 69/4/2
f 69/4/2 68/4/2 70/4/2
f 67/4/2 69/4/2 71/4/2
f 71/4/2 69/4/2 72/4/2
f 70/4/2 68/4/2 73/4/2
f 73/4/2 68/4/2 74/4/2
f 75/3/2 76/3/2 77/3/2
f 77/3/2 76/3/2 78/3/2
f 81/1/3 80/1/3 79/1/3
f 82/1/3 80/1/3 81/1/3
f 87/1/3 84/1/3 83/1/3
f 88/1/3 84/1/3 87/1/3
f 89/1/3 86/1/3 85/1/3
f 90/1/3 86/1/3 89/1/3
f 93/2/3 92/2/3 91/2/3
f 94/2/3 92/2/3 93/2/3
f 95/2/3 92/2/3 94/2/3
f 96/4/3 95/4/3 94/4/3
f 97/4/3 95/4/3 96/4/3
f 100/4/3 99/4/3 98/4/3
f 101/4/3 99/4/3 100/4/3
f 105/4/3 100/4/3 98/4/3
f 106/4/3 100/4/3 105/4/3
f 107/2/3 105/2/3 104/2/3
f 107/2/3 106/2/3 105/2/3
f 108/2/3 106/2/3 107/2/3
f 109/2/3 107/2/3 104/2/3
f 111/2/3 109/2/3 104/2/3
f 111/2/3 110/2/3 109/2/3
f 112/2/3 110/2/3 111/2/3
f 113/3/3 103/3/3 102/3/3
f 115/3/3 103/3/3 113/3/3
f 116/3/3 115/3/3 114/3/3
f 117/3/3 103/3/3 115/3/3
f 117/3/3 115/3/3 116/3/3
f 120/2/3 119/2/3 118/2/3
f 121/2/3 119/2/3 120/2/3
f 122/4/4 123/4/4 124/4/4
f 124/4/4 123/4/4 125/4/4
f 122/4/4 124/4/4 129/4/4
f 129/4/4 124/4/4 130/4/4
f 128/2/4 129/2/4 131/2/4
f 129/2/4 130/2/4 131/2/4
f 131/2/4 130/2/4 132/2/4
f 132/2/4 130/2/4 133/2/4
f 133/2/4 130/2/4 134/2/4
f 128/2/4 131/2/4 135/2/4
f 128/2/4 135/2/4 137/2/4
f 135/2/4 136/2/4 137/2/4
f 137/2/4 136/2/4 138/2/4
f 126/3/4 127/3/4 139/3/4
f 139/3/4 127/3/4 141/3/4
f 140/3/4 141/3/4 142/3/4
f 141/3/4 127/3/4 143/3/4
f 142/3/4 141/3/4 143/3/4
f 144/2/4 145/2/4 146/2/4
f 146/2/4 145/2/4 147/2/4
f 147/2/4 145/2/4 148/2/4
f 147/4/4 148/4/4 149/4/4
f 149/4/4 148/4/4 150/4/4
f 151/1/4 152/1/4 155/1/4
f 155/1/4 152/1/4 156/1/4
f 153/1/4 154/1/4 157/1/4
f 157/1/4 154/1/4 158/1/4
f 159/1/4 160/1/4 161/1/4
f 161/1/4 160/1/4 162/1/4
f 165/1/5 164/1/5 163/1/5
f 166/1/5 164/1/5 165/1/5
f 169/1/5 168/1/5 167/1/5
f 170/1/5 168/1/5 169/1/5
f 173/1/5 172/1/5 171/1/5
f 174/1/5 172/1/5 173/1/5
f 177/2/5 176/2/5 175/2/5
f 178/2/5 176/2/5 177/2/5
f 181/4/5 180/4/5 179/4/5
f 182/4/5 180/4/5 181/4/5
f 185/2/5 184/2/5 183/2/5
f 186/2/5 184/2/5 185/2/5
f 191/2/5 188/2/5 187/2/5
f 192/2/5 188/2/5 191/2/5
f 193/2/5 188/2/5 192/2/5
f 194/2/5 188/2/5 193/2/5
f 195/2/5 188/2/5 194/2/5
f 196/2/5 194/2/5 193/2/5
f 197/2/5 194/2/5 196/2/5
f 200/2/5 194/2/5 197/2/5
f 201/2/5 194/2/5 200/2/5
f 203/2/5 199/2/5 198/2/5
f 203/2/5 202/2/5 201/2/5
f 203/2/5 201/2/5 200/2/5
f 203/2/5 200/2/5 199/2/5
f 204/2/5 202/2/5 203/2/5
f 205/4/5 190/4/5 189/4/5
f 206/4/5 190/4/5 205/4/5
f 209/3/5 208/3/5 207/3/5
f 210/3/5 208/3/5 209/3/5
f 211/2/6 212/2/6 213/2/6
f 213/2/6 212/2/6 214/2/6
f 215/1/6 216/1/6 217/1/6
f 217/1/6 216/1/6 218/1/6
f 219/1/6 220/1/6 221/1/6
f 221/1/6 220/1/6 222/1/6
f 223/1/6 224/1/6 225/1/6
f 225/1/6 224/1/6 226/1/6
f 227/1/6 228/1/6 229/1/6
f 229/1/6 228/1/6 230/1/6
f 231/4/6 232/4/6 233/4/6
f 233/4/6 232/4/6 234/4/6
f 235/2/6 236/2/6 238/2/6
f 236/4/6 237/4/6 239/4/6
f 238/2/6 236/2/6 239/2/6
f 239/4/6 237/4/6 240/4/6
f 235/2/6 238/2/6 241/2/6
f 235/2/6 241/2/6 244/2/6
f 241/2/6 242/2/6 244/2/6
f 242/4/6 243/4/6 245/4/6
f 244/2/6 242/2/6 245/2/6
f 245/4/6 243/4/6 246/4/6
f 247/3/6 248/3/6 249/3/6
f 249/3/6 248/3/6 250/3/6
